<svg width="12" height="18" viewBox="0 0 12 18" fill="none" xmlns="http://www.w3.org/2000/svg">
<path d="M2.2804 1.33053L3.14357 1.05457C3.953 0.796263 4.81777 1.21421 5.16432 2.03085L5.85422 3.65772C6.15424 4.36606 5.98738 5.19955 5.44188 5.71777L3.92171 7.16013C4.01557 8.0233 4.30597 8.87284 4.7921 9.70873C5.25374 10.5175 5.87296 11.2253 6.6131 11.7904L8.43891 11.1808C9.13041 10.9505 9.88448 11.2161 10.308 11.8394L11.2972 13.2914C11.7905 14.0166 11.7015 15.0161 11.0894 15.6306L10.434 16.2892C9.781 16.9446 8.84803 17.1829 7.98567 16.9133C5.94807 16.278 4.07654 14.392 2.36784 11.2554C0.656747 8.11395 0.0526887 5.44743 0.556472 3.25902C0.768253 2.3381 1.42365 1.60408 2.2804 1.33053Z" fill="white"/>
</svg>
