<svg width="22" height="22" viewBox="0 0 22 22" fill="none" xmlns="http://www.w3.org/2000/svg">
<g clip-path="url(#clip0_814_750)">
<path fill-rule="evenodd" clip-rule="evenodd" d="M0.916626 2.60134C0.916626 2.15449 1.09413 1.72595 1.4101 1.40998C1.72607 1.09401 2.15461 0.916506 2.60146 0.916506H19.3966C19.6181 0.916144 19.8374 0.959464 20.0421 1.04398C20.2468 1.1285 20.4328 1.25257 20.5894 1.40906C20.7461 1.56556 20.8704 1.75143 20.9551 1.95602C21.0399 2.1606 21.0834 2.3799 21.0833 2.60134V19.3965C21.0835 19.618 21.0401 19.8374 20.9555 20.042C20.8709 20.2467 20.7467 20.4327 20.5901 20.5894C20.4336 20.746 20.2476 20.8703 20.043 20.955C19.8384 21.0397 19.619 21.0833 19.3975 21.0832H2.60146C2.38013 21.0832 2.16096 21.0396 1.95649 20.9548C1.75202 20.8701 1.56624 20.7459 1.40978 20.5894C1.25332 20.4328 1.12923 20.247 1.04461 20.0425C0.959996 19.8379 0.916506 19.6188 0.916626 19.3974V2.60134ZM8.89896 8.60551H11.6297V9.97684C12.0239 9.18851 13.0322 8.47901 14.5475 8.47901C17.4524 8.47901 18.1408 10.0493 18.1408 12.9303V18.2672H15.201V13.5867C15.201 11.9458 14.8069 11.02 13.8059 11.02C12.4171 11.02 11.8396 12.0183 11.8396 13.5867V18.2672H8.89896V8.60551ZM3.85729 18.1416H6.79796V8.47901H3.85729V18.1407V18.1416ZM7.21871 5.32751C7.22425 5.57929 7.17945 5.82964 7.08693 6.06388C6.99441 6.29811 6.85603 6.5115 6.67992 6.69154C6.50381 6.87157 6.29352 7.01461 6.06138 7.11226C5.82924 7.20992 5.57993 7.26022 5.32808 7.26022C5.07624 7.26022 4.82693 7.20992 4.59479 7.11226C4.36265 7.01461 4.15236 6.87157 3.97625 6.69154C3.80014 6.5115 3.66176 6.29811 3.56924 6.06388C3.47672 5.82964 3.43192 5.57929 3.43746 5.32751C3.44834 4.83329 3.65231 4.36298 4.00569 4.0173C4.35906 3.67162 4.83375 3.47806 5.32808 3.47806C5.82242 3.47806 6.29711 3.67162 6.65048 4.0173C7.00386 4.36298 7.20783 4.83329 7.21871 5.32751Z" fill="white"/>
</g>
<defs>
<clipPath id="clip0_814_750">
<rect width="22" height="22" fill="white"/>
</clipPath>
</defs>
</svg>
