<svg width="20" height="19" viewBox="0 0 20 19" fill="none" xmlns="http://www.w3.org/2000/svg">
<g clip-path="url(#clip0_408_1960)">
<path fill-rule="evenodd" clip-rule="evenodd" d="M6.55063 1.14694C7.4612 1.10502 7.75152 1.0957 10.071 1.0957C12.3905 1.0957 12.6808 1.10579 13.5906 1.14694C14.5004 1.18808 15.1214 1.33324 15.6648 1.54361C16.2338 1.75864 16.7501 2.09476 17.177 2.52947C17.6117 2.95565 17.9471 3.47109 18.1613 4.04087C18.3725 4.58426 18.5168 5.20528 18.5588 6.11352C18.6007 7.02563 18.61 7.31596 18.61 9.63468C18.61 11.9542 18.5999 12.2445 18.5588 13.1551C18.5176 14.0633 18.3725 14.6843 18.1613 15.2277C17.9471 15.7976 17.6112 16.3139 17.177 16.7407C16.7501 17.1754 16.2338 17.5107 15.6648 17.725C15.1214 17.9361 14.5004 18.0805 13.5922 18.1224C12.6808 18.1643 12.3905 18.1737 10.071 18.1737C7.75152 18.1737 7.4612 18.1636 6.55063 18.1224C5.6424 18.0813 5.02138 17.9361 4.47799 17.725C3.90815 17.5107 3.39185 17.1748 2.96504 16.7407C2.53062 16.3142 2.19445 15.7982 1.97995 15.2285C1.76958 14.6851 1.6252 14.0641 1.58328 13.1558C1.54136 12.2437 1.53204 11.9534 1.53204 9.63468C1.53204 7.31518 1.54213 7.02486 1.58328 6.11507C1.62442 5.20528 1.76958 4.58426 1.97995 4.04087C2.19476 3.47115 2.5312 2.95511 2.96582 2.5287C3.39202 2.09438 3.9078 1.75821 4.47721 1.54361C5.0206 1.33324 5.64162 1.18886 6.54986 1.14694H6.55063ZM13.5215 2.68395C12.6211 2.64281 12.3509 2.63427 10.071 2.63427C7.79111 2.63427 7.52097 2.64281 6.6205 2.68395C5.78756 2.72199 5.33577 2.86094 5.03458 2.97816C4.63635 3.13341 4.35146 3.31739 4.05259 3.61625C3.76929 3.89187 3.55126 4.2274 3.4145 4.59824C3.29728 4.89943 3.15833 5.35122 3.12029 6.18416C3.07915 7.08463 3.07061 7.35477 3.07061 9.63468C3.07061 11.9146 3.07915 12.1847 3.12029 13.0852C3.15833 13.9181 3.29728 14.3699 3.4145 14.6711C3.55112 15.0414 3.76926 15.3775 4.05259 15.6531C4.32817 15.9364 4.6643 16.1546 5.03458 16.2912C5.33577 16.4084 5.78756 16.5474 6.6205 16.5854C7.52097 16.6265 7.79034 16.6351 10.071 16.6351C12.3517 16.6351 12.6211 16.6265 13.5215 16.5854C14.3545 16.5474 14.8063 16.4084 15.1075 16.2912C15.5057 16.1359 15.7906 15.952 16.0894 15.6531C16.3728 15.3775 16.5909 15.0414 16.7275 14.6711C16.8448 14.3699 16.9837 13.9181 17.0217 13.0852C17.0629 12.1847 17.0714 11.9146 17.0714 9.63468C17.0714 7.35477 17.0629 7.08463 17.0217 6.18416C16.9837 5.35122 16.8448 4.89943 16.7275 4.59824C16.5723 4.20001 16.3883 3.91512 16.0894 3.61625C15.8138 3.33297 15.4783 3.11495 15.1075 2.97816C14.8063 2.86094 14.3545 2.72199 13.5215 2.68395ZM8.98036 12.267C9.58947 12.5206 10.2677 12.5548 10.8992 12.3638C11.5308 12.1729 12.0764 11.7686 12.443 11.22C12.8096 10.6714 12.9743 10.0126 12.9091 9.35608C12.8439 8.69954 12.5528 8.086 12.0854 7.62026C11.7875 7.32254 11.4273 7.09458 11.0307 6.95278C10.6342 6.81098 10.2111 6.75888 9.79195 6.80022C9.37281 6.84156 8.96806 6.97531 8.60682 7.19186C8.24558 7.4084 7.93685 7.70234 7.70285 8.05253C7.46885 8.40271 7.31541 8.80041 7.25356 9.21702C7.19171 9.63362 7.223 10.0588 7.34518 10.4618C7.46735 10.8649 7.67738 11.2358 7.96012 11.548C8.24287 11.8601 8.59131 12.1057 8.98036 12.267ZM6.96749 6.53115C7.37505 6.12359 7.8589 5.80029 8.3914 5.57972C8.92391 5.35915 9.49464 5.24563 10.071 5.24563C10.6474 5.24563 11.2181 5.35915 11.7506 5.57972C12.2831 5.80029 12.767 6.12359 13.1746 6.53115C13.5821 6.93871 13.9054 7.42256 14.126 7.95506C14.3465 8.48757 14.4601 9.0583 14.4601 9.63468C14.4601 10.2111 14.3465 10.7818 14.126 11.3143C13.9054 11.8468 13.5821 12.3306 13.1746 12.7382C12.3514 13.5613 11.2351 14.0237 10.071 14.0237C8.90697 14.0237 7.7906 13.5613 6.96749 12.7382C6.14438 11.9151 5.68197 10.7987 5.68197 9.63468C5.68197 8.47063 6.14438 7.35426 6.96749 6.53115ZM15.4335 5.89927C15.5345 5.80399 15.6153 5.68942 15.6713 5.56234C15.7272 5.43526 15.7571 5.29825 15.7591 5.15943C15.7611 5.0206 15.7353 4.88278 15.6831 4.75412C15.6309 4.62546 15.5534 4.50859 15.4552 4.41041C15.357 4.31223 15.2402 4.23475 15.1115 4.18256C14.9828 4.13036 14.845 4.10451 14.7062 4.10653C14.5674 4.10856 14.4303 4.13842 14.3033 4.19434C14.1762 4.25026 14.0616 4.33112 13.9663 4.43211C13.7811 4.62853 13.6796 4.88943 13.6836 5.15943C13.6875 5.42942 13.7965 5.68725 13.9874 5.87818C14.1784 6.06912 14.4362 6.17812 14.7062 6.18206C14.9762 6.186 15.2371 6.08455 15.4335 5.89927Z" fill="#232F47"/>
</g>
<defs>
<clipPath id="clip0_408_1960">
<rect width="18.6305" height="18.6305" fill="white" transform="translate(0.755798 0.319336)"/>
</clipPath>
</defs>
</svg>
