<svg width="20" height="19" viewBox="0 0 20 19" fill="none" xmlns="http://www.w3.org/2000/svg">
<g clip-path="url(#clip0_408_1962)">
<path d="M18.8703 5.37086C18.7648 4.99455 18.5593 4.65385 18.2757 4.38499C17.984 4.10787 17.6265 3.90963 17.237 3.809C15.7792 3.42475 9.93851 3.42475 9.93851 3.42475C7.5036 3.39704 5.0693 3.51889 2.64933 3.78959C2.25979 3.89766 1.90299 4.10033 1.61068 4.37956C1.32346 4.65591 1.11542 4.9967 1.00674 5.37008C0.745675 6.77648 0.618832 8.20451 0.627921 9.63491C0.618605 11.064 0.745137 12.4916 1.00674 13.8997C1.11309 14.2716 1.32035 14.6108 1.60835 14.8848C1.89635 15.1589 2.25498 15.3568 2.64933 15.4616C4.12657 15.8451 9.93851 15.8451 9.93851 15.8451C12.3765 15.8728 14.8139 15.751 17.237 15.4802C17.6265 15.3796 17.984 15.1814 18.2757 14.9042C18.5592 14.6354 18.7644 14.2947 18.8695 13.9184C19.1374 12.5125 19.2676 11.0839 19.2584 9.65277C19.2786 8.21558 19.1485 6.78023 18.8703 5.37008V5.37086ZM8.08167 12.2929V6.97774L12.9411 9.63569L8.08167 12.2929Z" fill="#232F47"/>
</g>
<defs>
<clipPath id="clip0_408_1962">
<rect width="18.6305" height="18.6305" fill="white" transform="translate(0.627899 0.319336)"/>
</clipPath>
</defs>
</svg>
