<svg width="20" height="20" viewBox="0 0 20 20" fill="none" xmlns="http://www.w3.org/2000/svg">
<g clip-path="url(#clip0_408_1958)">
<path d="M19.2371 4.34907C18.5889 4.63629 17.8926 4.83036 17.1606 4.91808C17.9159 4.46613 18.4809 3.75481 18.7504 2.91685C18.0407 3.33836 17.2641 3.63506 16.4542 3.79404C15.9095 3.21251 15.1881 2.82706 14.4019 2.69754C13.6158 2.56801 12.8089 2.70166 12.1064 3.07774C11.404 3.45381 10.8454 4.05127 10.5174 4.77734C10.1893 5.50342 10.1101 6.3175 10.2921 7.09319C8.85422 7.02099 7.44757 6.64726 6.16346 5.99624C4.87935 5.34523 3.74648 4.43148 2.83837 3.3143C2.52786 3.84993 2.34932 4.47095 2.34932 5.13233C2.34897 5.72773 2.49559 6.314 2.77617 6.83914C3.05675 7.36428 3.46261 7.81204 3.95775 8.14271C3.38352 8.12443 2.82197 7.96927 2.31982 7.69014V7.73672C2.31976 8.57178 2.60862 9.38115 3.13737 10.0275C3.66613 10.6738 4.40222 11.1173 5.22074 11.2827C4.68805 11.4269 4.12957 11.4481 3.58747 11.3448C3.81841 12.0633 4.26825 12.6917 4.87403 13.1418C5.47981 13.592 6.2112 13.8414 6.9658 13.8553C5.68482 14.8609 4.10282 15.4063 2.4743 15.4039C2.18582 15.404 1.89759 15.3872 1.61108 15.3535C3.26413 16.4163 5.1884 16.9804 7.15365 16.9782C13.8063 16.9782 17.4431 11.4682 17.4431 6.68953C17.4431 6.53427 17.4392 6.37747 17.4323 6.22221C18.1397 5.71063 18.7503 5.07713 19.2355 4.3514L19.2371 4.34907Z" fill="#232F47"/>
</g>
<defs>
<clipPath id="clip0_408_1958">
<rect width="18.6305" height="18.6305" fill="white" transform="translate(0.883728 0.516602)"/>
</clipPath>
</defs>
</svg>
