<svg width="48" height="48" viewBox="0 0 48 48" fill="none" xmlns="http://www.w3.org/2000/svg">
<path d="M47.2267 9.80269C47.1874 9.35481 46.8759 8.98866 46.5383 8.98866C46.2006 8.98866 45.9236 8.71078 45.9236 8.37569C45.9236 8.04059 45.5597 7.82646 45.1156 7.90165L42.7028 8.3103C42.2177 5.37947 41.4899 3.54708 40.3917 2.4519C37.1136 -0.817299 10.8883 -0.817299 7.61013 2.4519C6.51195 3.54708 5.7842 5.37783 5.29903 8.30867L2.8863 7.90002C2.44375 7.82483 2.07824 8.03896 2.07824 8.37405C2.07824 8.70914 1.79959 8.98866 1.46358 8.98866C1.12757 8.98866 0.814507 9.35645 0.775169 9.80269L0.00480125 18.0836C-0.00714419 18.1871 0.00326286 18.292 0.0353239 18.3912C0.0673849 18.4904 0.120358 18.5816 0.190686 18.6587C0.261013 18.7358 0.347069 18.797 0.443073 18.8382C0.539078 18.8794 0.64281 18.8997 0.747304 18.8976H2.48801C2.93875 18.8976 3.34033 18.5314 3.38295 18.0836L4.02874 11.1659C4.03712 11.0614 4.06738 10.9597 4.1176 10.8675C4.16781 10.7753 4.23685 10.6947 4.32025 10.6308C4.40366 10.5668 4.49958 10.5211 4.60183 10.4964C4.70407 10.4717 4.81036 10.4687 4.91385 10.4876L5.00236 10.5039C4.34509 16.4735 4.33197 46.3654 4.33197 46.3654C4.33197 47.271 4.56144 48 4.845 48H9.04433C9.32789 48 9.55736 47.271 9.55736 46.3654V43.2727C17.1676 44.417 30.8359 44.417 38.4461 43.2727V46.3621C38.4461 47.2661 38.6756 47.9967 38.9575 47.9967H43.1569C43.4388 47.9967 43.6683 47.2661 43.6683 46.3621C43.6683 46.3621 43.6551 16.4768 42.9995 10.5039L43.088 10.4876C43.1916 10.4693 43.2978 10.4727 43.4 10.4977C43.5021 10.5226 43.5979 10.5686 43.6812 10.6326C43.7645 10.6966 43.8335 10.7772 43.8838 10.8694C43.934 10.9615 43.9645 11.0631 43.9731 11.1676L44.6173 18.0819C44.6566 18.5314 45.0598 18.8992 45.5106 18.8992H47.2513C47.356 18.9008 47.4598 18.8801 47.5559 18.8386C47.652 18.797 47.7381 18.7355 47.8085 18.6582C47.8789 18.5809 47.932 18.4895 47.9642 18.3902C47.9964 18.2908 48.0071 18.1857 47.9954 18.0819L47.2251 9.80106L47.2267 9.80269ZM9.45574 36.0478C9.05785 36.0612 8.66132 35.9947 8.28975 35.8521C7.91818 35.7096 7.57916 35.494 7.29286 35.2181C7.00656 34.9422 6.77884 34.6117 6.62323 34.2463C6.46763 33.8808 6.38733 33.4879 6.38711 33.0909C6.38689 32.6939 6.46675 32.3008 6.62195 31.9352C6.77715 31.5696 7.00451 31.2389 7.2905 30.9627C7.5765 30.6865 7.91528 30.4705 8.28669 30.3275C8.6581 30.1846 9.05456 30.1176 9.45246 30.1306C10.2182 30.1612 10.9424 30.4861 11.4734 31.0371C12.0045 31.5881 12.3013 32.3225 12.3017 33.0868C12.3021 33.8511 12.0061 34.5859 11.4757 35.1374C10.9452 35.689 10.2214 36.0147 9.45574 36.0462V36.0478ZM6.04153 23.9632C6.20544 11.81 6.77912 5.5936 8.7706 3.60593C9.56883 2.81151 14.9614 1.63296 24.0026 1.63296C33.0437 1.63296 38.4363 2.80988 39.2345 3.60593C41.2293 5.5936 41.7981 11.8116 41.9636 23.9649C40.0377 24.738 33.9256 25.6403 24.0026 25.6403C14.0861 25.6403 7.97565 24.7413 6.04153 23.9632ZM35.5778 33.0876C35.6031 32.319 35.9271 31.5904 36.4811 31.0557C37.0352 30.5209 37.7759 30.2218 38.547 30.2216C39.318 30.2214 40.059 30.5201 40.6133 31.0545C41.1676 31.589 41.492 32.3174 41.5178 33.0859C41.5178 33.8715 41.2049 34.6248 40.6479 35.1803C40.0909 35.7358 39.3355 36.0478 38.5478 36.0478C37.7601 36.0478 37.0046 35.7358 36.4477 35.1803C35.8907 34.6248 35.5778 33.8715 35.5778 33.0859V33.0876Z" fill="#F73E20"/>
</svg>
