<svg width="12" height="16" viewBox="0 0 12 16" fill="none" xmlns="http://www.w3.org/2000/svg">
<path d="M5.83333 15.5C4.78078 14.6022 3.80516 13.6179 2.91667 12.5575C1.58333 10.965 7.32412e-07 8.59333 7.32412e-07 6.33333C-0.000577516 5.17913 0.341258 4.0507 0.982245 3.09085C1.62323 2.131 2.53456 1.38288 3.60089 0.94116C4.66722 0.499443 5.84062 0.383987 6.9726 0.609405C8.10457 0.834823 9.14423 1.39098 9.96 2.20749C10.5031 2.74821 10.9336 3.39128 11.2266 4.09947C11.5195 4.80767 11.6691 5.56694 11.6667 6.33333C11.6667 8.59333 10.0833 10.965 8.75 12.5575C7.8615 13.6179 6.88588 14.6022 5.83333 15.5ZM5.83333 3.83333C5.17029 3.83333 4.53441 4.09672 4.06557 4.56556C3.59673 5.0344 3.33333 5.67029 3.33333 6.33333C3.33333 6.99637 3.59673 7.63225 4.06557 8.1011C4.53441 8.56994 5.17029 8.83333 5.83333 8.83333C6.49638 8.83333 7.13226 8.56994 7.6011 8.1011C8.06994 7.63225 8.33333 6.99637 8.33333 6.33333C8.33333 5.67029 8.06994 5.0344 7.6011 4.56556C7.13226 4.09672 6.49638 3.83333 5.83333 3.83333Z" fill="#232F47"/>
</svg>
