<svg width="47" height="48" viewBox="0 0 47 48" fill="none" xmlns="http://www.w3.org/2000/svg">
<path d="M23.4681 16.1702C21.1161 16.1702 18.9153 15.1643 17.3765 13.3991H6.88159C6.48269 13.3991 6.15894 13.0753 6.15894 12.6764V3.49382C6.15894 3.09491 6.48269 2.77116 6.88159 2.77116H17.3765C18.9153 1.00594 21.1161 0 23.4681 0C25.8201 0 28.0208 1.00594 29.5596 2.77116H40.0546C40.4535 2.77116 40.7772 3.09491 40.7772 3.49382V12.6754C40.7772 13.0744 40.4535 13.3981 40.0546 13.3981H29.5596C28.0208 15.1643 25.8211 16.1702 23.4681 16.1702ZM7.60425 11.9528H17.7147C17.9344 11.9528 18.1426 12.053 18.2794 12.2245C19.5484 13.8134 21.4398 14.7249 23.4681 14.7249C25.4963 14.7249 27.3878 13.8134 28.6568 12.2245C28.7936 12.053 29.0017 11.9528 29.2214 11.9528H39.3319V4.21648H29.2224C29.0027 4.21648 28.7946 4.11627 28.6577 3.94476C27.3878 2.35683 25.4973 1.44532 23.4681 1.44532C21.4398 1.44532 19.5484 2.35683 18.2794 3.94572C18.1426 4.11723 17.9344 4.21744 17.7147 4.21744H7.60425V11.9528Z" fill="#F73E20"/>
<path d="M3.97174 26.8313C1.7816 26.8313 0 25.0488 0 22.8586V21.37C0 21.1782 0.0761201 20.9932 0.212944 20.8583L6.71206 14.3852C6.99438 14.1039 7.45206 14.1048 7.73438 14.3871C8.01574 14.6695 8.01477 15.1272 7.73246 15.4095L1.44532 21.6696V22.8586C1.44532 24.2519 2.57845 25.3851 3.97174 25.3851C5.36502 25.3851 6.49815 24.2519 6.49815 22.8586C6.49815 22.4597 6.82191 22.136 7.22081 22.136C7.61972 22.136 7.94347 22.4597 7.94347 22.8586C7.94444 25.0488 6.16188 26.8313 3.97174 26.8313Z" fill="#F73E20"/>
<path d="M10.4708 26.8311C8.28062 26.8311 6.49902 25.0495 6.49902 22.8594C6.49902 22.4605 6.82277 22.1367 7.22168 22.1367C7.62059 22.1367 7.94434 22.4605 7.94434 22.8594C7.94434 24.2527 9.07747 25.3858 10.4708 25.3858C11.864 25.3858 12.9972 24.2527 12.9972 22.8594C12.9972 22.4605 13.3209 22.1367 13.7198 22.1367C14.1187 22.1367 14.4425 22.4605 14.4425 22.8594C14.4425 25.0486 12.6609 26.8311 10.4708 26.8311Z" fill="#F73E20"/>
<path d="M16.97 26.8311C14.7799 26.8311 12.9983 25.0495 12.9983 22.8594C12.9983 22.4605 13.322 22.1367 13.721 22.1367C14.1199 22.1367 14.4436 22.4605 14.4436 22.8594C14.4436 24.2527 15.5767 25.3858 16.97 25.3858C18.3633 25.3858 19.4964 24.2527 19.4964 22.8594C19.4964 22.4605 19.8202 22.1367 20.2191 22.1367C20.618 22.1367 20.9418 22.4605 20.9418 22.8594C20.9418 25.0486 19.1602 26.8311 16.97 26.8311Z" fill="#F73E20"/>
<path d="M23.4678 26.8311C21.2777 26.8311 19.4961 25.0495 19.4961 22.8594C19.4961 22.4605 19.8198 22.1367 20.2188 22.1367C20.6177 22.1367 20.9414 22.4605 20.9414 22.8594C20.9414 24.2527 22.0745 25.3858 23.4678 25.3858C24.8611 25.3858 25.9942 24.2527 25.9942 22.8594C25.9942 22.4605 26.318 22.1367 26.7169 22.1367C27.1158 22.1367 27.4396 22.4605 27.4396 22.8594C27.4405 25.0486 25.658 26.8311 23.4678 26.8311Z" fill="#F73E20"/>
<path d="M29.9671 26.8311C27.777 26.8311 25.9954 25.0495 25.9954 22.8594C25.9954 22.4605 26.3191 22.1367 26.718 22.1367C27.1169 22.1367 27.4407 22.4605 27.4407 22.8594C27.4407 24.2527 28.5738 25.3858 29.9671 25.3858C31.3604 25.3858 32.4935 24.2527 32.4935 22.8594C32.4935 22.4605 32.8173 22.1367 33.2162 22.1367C33.6151 22.1367 33.9388 22.4605 33.9388 22.8594C33.9388 25.0486 32.1572 26.8311 29.9671 26.8311Z" fill="#F73E20"/>
<path d="M36.4661 26.8311C34.276 26.8311 32.4944 25.0495 32.4944 22.8594C32.4944 22.4605 32.8181 22.1367 33.217 22.1367C33.616 22.1367 33.9397 22.4605 33.9397 22.8594C33.9397 24.2527 35.0728 25.3858 36.4661 25.3858C37.8594 25.3858 38.9925 24.2527 38.9925 22.8594C38.9925 22.4605 39.3163 22.1367 39.7152 22.1367C40.1141 22.1367 40.4379 22.4605 40.4379 22.8594C40.4379 25.0486 38.6563 26.8311 36.4661 26.8311Z" fill="#F73E20"/>
<path d="M42.9644 26.8316C40.7743 26.8316 38.9927 25.05 38.9927 22.8598C38.9927 22.4609 39.3164 22.1372 39.7153 22.1372C40.1142 22.1372 40.438 22.4609 40.438 22.8598C40.438 24.2531 41.5711 25.3862 42.9644 25.3862C44.3577 25.3862 45.4908 24.2531 45.4908 22.8598V21.6592L39.5313 15.3952C39.2557 15.1062 39.2673 14.6485 39.5564 14.3739C39.8454 14.0993 40.3031 14.1099 40.5777 14.3989L46.7367 20.872C46.8648 21.006 46.9361 21.1852 46.9361 21.3702V22.8589C46.9371 25.049 45.1546 26.8316 42.9644 26.8316Z" fill="#F73E20"/>
<path d="M24.707 13.0438H22.2298C21.8309 13.0438 21.5071 12.72 21.5071 12.3211V10.0462H19.2322C18.8333 10.0462 18.5095 9.72242 18.5095 9.32352V6.84624C18.5095 6.44733 18.8333 6.12358 19.2322 6.12358H21.5071V3.84961C21.5071 3.4507 21.8309 3.12695 22.2298 3.12695H24.707C25.106 3.12695 25.4297 3.4507 25.4297 3.84961V6.12358H27.7046C28.1035 6.12358 28.4273 6.44733 28.4273 6.84624V9.32352C28.4273 9.72242 28.1035 10.0462 27.7046 10.0462H25.4297V12.3211C25.4297 12.72 25.106 13.0438 24.707 13.0438ZM22.9524 11.5984H23.9844V9.32352C23.9844 8.92461 24.3081 8.60086 24.707 8.60086H26.982V7.5689H24.707C24.3081 7.5689 23.9844 7.24515 23.9844 6.84624V4.57227H22.9524V6.84624C22.9524 7.24515 22.6287 7.5689 22.2298 7.5689H19.9548V8.60086H22.2298C22.6287 8.60086 22.9524 8.92461 22.9524 9.32352V11.5984Z" fill="#F73E20"/>
<path d="M44.076 47.9996H2.86035C2.46145 47.9996 2.1377 47.6759 2.1377 47.2769V28.5244C2.1377 28.1255 2.46145 27.8018 2.86035 27.8018C3.25926 27.8018 3.58301 28.1255 3.58301 28.5244V46.5543H43.3534V28.5244C43.3534 28.1255 43.6771 27.8018 44.076 27.8018C44.4749 27.8018 44.7987 28.1255 44.7987 28.5244V47.2769C44.7987 47.6768 44.4749 47.9996 44.076 47.9996Z" fill="#F73E20"/>
<path d="M24.7206 48.0006C24.3217 48.0006 23.998 47.6768 23.998 47.2779V33.8731H10.093V47.2779C10.093 47.6768 9.76927 48.0006 9.37036 48.0006C8.97146 48.0006 8.64771 47.6768 8.64771 47.2779V33.1504C8.64771 32.7515 8.97146 32.4277 9.37036 32.4277H24.7216C25.1205 32.4277 25.4442 32.7515 25.4442 33.1504V47.2779C25.4433 47.6778 25.1205 48.0006 24.7206 48.0006Z" fill="#F73E20"/>
<path d="M37.9467 40.0532H31.7087C31.3098 40.0532 30.9861 39.7295 30.9861 39.3306V33.1504C30.9861 32.7515 31.3098 32.4277 31.7087 32.4277H37.9467C38.3456 32.4277 38.6694 32.7515 38.6694 33.1504V39.3306C38.6694 39.7295 38.3456 40.0532 37.9467 40.0532ZM32.4314 38.6079H37.2241V33.8731H32.4314V38.6079Z" fill="#F73E20"/>
<path d="M17.0459 47.5063C16.647 47.5063 16.3232 47.1825 16.3232 46.7836V33.1504C16.3232 32.7515 16.647 32.4277 17.0459 32.4277C17.4448 32.4277 17.7686 32.7515 17.7686 33.1504V46.7836C17.7686 47.1825 17.4448 47.5063 17.0459 47.5063Z" fill="#F73E20"/>
<path d="M40.0553 20.333H6.88135C6.48244 20.333 6.15869 20.0093 6.15869 19.6104C6.15869 19.2114 6.48244 18.8877 6.88135 18.8877H40.0553C40.4542 18.8877 40.7779 19.2114 40.7779 19.6104C40.7779 20.0093 40.4542 20.333 40.0553 20.333Z" fill="#F73E20"/>
</svg>
