<svg width="73" height="48" viewBox="0 0 73 48" fill="none" xmlns="http://www.w3.org/2000/svg">
<g clip-path="url(#clip0_491_2822)">
<path d="M3.07585 39.028C3.07585 20.4523 17.8532 5.35408 36.2157 5.00078V4.55957C17.5493 4.55957 2.41699 19.798 2.41699 38.5951V45.7614H3.07585V39.028Z" fill="#F73E20"/>
<path d="M36.1507 7.76542C33.2665 8.79049 30.5454 10.2626 28.1052 12.1195C25.6493 13.9888 23.4816 16.2281 21.7093 18.7642C19.862 21.4073 18.4504 24.3598 17.5313 27.4566C16.6476 30.4356 16.1584 33.6111 16.3577 36.7228C16.5422 39.6114 17.3015 42.6012 19.0557 44.9433C19.2649 45.2228 19.4864 45.4923 19.7212 45.7502C19.9238 45.9725 20.2515 45.6416 20.0498 45.4193C18.1267 43.3053 17.206 40.4358 16.9004 37.6301C16.5718 34.6121 16.9375 31.5328 17.6952 28.6044C18.4891 25.535 19.7706 22.5983 21.4828 19.9361C23.1283 17.3775 25.1798 15.0927 27.5254 13.1678C29.838 11.2702 32.4454 9.72018 35.2192 8.61384C35.5684 8.47451 35.9209 8.34264 36.275 8.21658C36.5542 8.11706 36.434 7.66507 36.1507 7.76542Z" fill="#F73E20"/>
<path d="M29.973 20.8765C30.9843 21.6901 32.5203 21.3509 33.2961 20.3632C34.1913 19.2228 33.8084 17.5683 32.867 16.5855C31.7346 15.4028 29.8964 15.2793 28.423 15.7976C26.85 16.3508 25.5957 17.5558 24.5358 18.8106C22.4126 21.3252 20.9483 24.3905 20.2952 27.6232C19.6487 30.8204 19.815 34.1444 20.7926 37.2561C21.7537 40.3147 23.4544 43.1428 25.7316 45.3895C26.0108 45.6648 26.299 45.931 26.5947 46.189C26.8195 46.3855 27.1498 46.0554 26.9233 45.858C24.6502 43.8767 22.8647 41.3431 21.7414 38.5349C20.6065 35.6969 20.1552 32.6176 20.4648 29.5722C20.7778 26.4986 21.8476 23.5039 23.5359 20.9254C24.3834 19.6317 25.3898 18.3852 26.584 17.3999C27.7666 16.4246 29.3075 15.7337 30.8625 16.0381C31.5798 16.1783 32.2337 16.5258 32.7007 17.098C33.1018 17.5898 33.3513 18.2292 33.3414 18.8695C33.3315 19.4791 33.0696 20.0389 32.5887 20.4129C32.1571 20.7488 31.5748 20.9346 31.0296 20.8541C30.7661 20.8151 30.5091 20.7115 30.3008 20.5439C30.0702 20.359 29.7399 20.6883 29.973 20.8765Z" fill="#F73E20"/>
<path d="M28.9091 30.9256C29.2731 32.3347 30.6172 33.2602 32.014 33.3946C33.526 33.5397 34.8882 32.6059 35.5347 31.2599C36.2183 29.8367 36.0923 28.1705 35.1823 26.8776C34.2467 25.5481 32.714 24.7371 31.1031 24.6674C29.3176 24.5903 27.5601 25.3649 26.2745 26.589C24.9864 27.8148 24.1414 29.4701 23.7008 31.186C22.8212 34.6096 23.5344 38.4246 25.6008 41.2858C27.6194 44.0824 30.8577 45.8854 34.2697 46.1964C34.6922 46.2345 35.1172 46.2478 35.5413 46.2387C35.8395 46.232 35.8411 45.7643 35.5413 45.7709C32.3302 45.8397 29.1405 44.4929 26.9226 42.1558C24.652 39.764 23.5509 36.3744 23.8425 33.091C24.1307 29.8384 25.9236 26.385 29.208 25.3848C30.7308 24.9212 32.3763 25.097 33.6908 26.0267C34.8709 26.8618 35.6385 28.2435 35.4993 29.714C35.3725 31.06 34.4921 32.4176 33.167 32.8198C31.9522 33.1889 30.4846 32.6979 29.7483 31.6496C29.5663 31.3901 29.4362 31.1081 29.3563 30.8012C29.2822 30.5101 28.8333 30.6337 28.9091 30.9256Z" fill="#F73E20"/>
<path d="M31.8318 40.274C32.3548 41.1034 33.4756 41.1631 34.2539 40.6829C35.1203 40.1488 35.6803 39.1254 35.8994 38.1492C36.1226 37.154 36.0172 36.0734 35.5 35.1843C35.0281 34.3732 34.244 33.7388 33.3447 33.4784C31.3986 32.9144 29.5793 34.3343 28.6964 35.9822C28.1817 36.9434 27.8844 38.0638 28.0738 39.1552C28.2542 40.1985 28.9377 41.0528 29.7383 41.7013C31.5353 43.1577 33.922 43.8742 36.1926 44.0774C36.4899 44.1039 36.4883 43.6362 36.1926 43.6096C34.3684 43.4463 32.4857 42.9205 30.911 41.9626C30.155 41.5023 29.4129 40.9126 28.9443 40.1463C28.4197 39.2888 28.3777 38.2794 28.647 37.3274C29.1008 35.7226 30.4334 33.9859 32.2016 33.8308C33.9591 33.6774 35.4366 35.1959 35.5403 36.9085C35.6029 37.9386 35.2587 39.025 34.5726 39.7996C34.2531 40.1604 33.8265 40.4822 33.3323 40.5228C32.914 40.5568 32.4659 40.4075 32.2329 40.0377C32.0731 39.7847 31.6704 40.0186 31.8318 40.274Z" fill="#F73E20"/>
<path d="M13.2718 46.1397C11.5736 45.21 10.4247 43.5222 10.0285 41.6322C9.65792 39.8648 9.83746 37.6273 11.259 36.3484C11.8651 35.8027 12.7035 35.4942 13.5172 35.5381C14.3202 35.5821 15.0169 36.0333 15.3941 36.7465C16.0414 37.9714 15.7705 39.8466 14.5376 40.6046C13.7783 41.0715 12.6771 40.9786 12.1978 40.1526C11.7654 39.407 12.2612 38.3164 13.1705 38.3538C13.4694 38.3662 13.4686 37.8985 13.1705 37.886C12.2349 37.8479 11.5192 38.722 11.5694 39.6343C11.6246 40.6262 12.5215 41.317 13.462 41.3585C14.3712 41.3991 15.1965 40.86 15.6684 40.102C16.1213 39.3747 16.2704 38.474 16.1518 37.6306C16.0291 36.7564 15.5778 35.9213 14.8143 35.4569C13.9924 34.9568 12.9423 34.9692 12.0669 35.3184C10.0038 36.1419 9.28072 38.508 9.41744 40.5739C9.56156 42.7451 10.5746 44.8235 12.3452 46.1081C12.566 46.2682 12.7974 46.4125 13.0362 46.5436C13.3006 46.687 13.5353 46.2831 13.2718 46.1397Z" fill="#F73E20"/>
<path d="M12.15 35.3465C10.9459 34.5529 10.1273 33.1828 10.0103 31.7356C9.89173 30.2627 10.4995 28.7806 11.5842 27.792C12.6787 26.7943 14.4774 26.2702 15.6708 27.4022C16.2143 27.9173 16.4869 28.6463 16.4079 29.3952C16.3288 30.1449 15.8956 30.8382 15.2268 31.1866C14.5392 31.5448 13.6233 31.3989 13.2066 30.6972C12.8418 30.0827 13.1696 29.2052 13.8877 29.0634C14.1809 29.0054 14.0565 28.5542 13.7642 28.6123C13.0098 28.7615 12.509 29.5602 12.5947 30.3108C12.6878 31.1277 13.4249 31.7339 14.2064 31.8351C15.0802 31.9487 15.9294 31.4412 16.4087 30.7288C16.9012 29.9973 17.0264 29.0045 16.7225 28.1744C16.4342 27.3865 15.8075 26.7562 15.0267 26.4609C14.162 26.1342 13.1918 26.2967 12.3773 26.6907C10.8092 27.4487 9.75666 29.0908 9.56065 30.81C9.34076 32.7399 10.3134 34.693 11.9144 35.7488C12.1664 35.9155 12.3995 35.5108 12.15 35.3465Z" fill="#F73E20"/>
<path d="M13.6605 26.161C13.0362 24.8282 13.0238 23.2135 13.6637 21.8832C14.2205 20.7263 15.2475 19.741 16.4721 19.338C17.5461 18.9847 19.0804 19.0983 19.5037 20.3564C19.9089 21.5598 19.1397 22.9697 17.9488 23.3371C17.2784 23.5444 16.4746 23.3362 16.1353 22.6752C15.8421 22.103 16.1691 21.3301 16.8139 21.2164C17.1079 21.165 16.9836 20.7138 16.6904 20.7653C16.0019 20.8864 15.5217 21.6012 15.5596 22.2863C15.6008 23.0261 16.1929 23.6149 16.8757 23.8139C17.677 24.0478 18.536 23.7136 19.1339 23.1704C19.6676 22.6852 19.988 21.9919 20.0604 21.2761C20.1296 20.5878 19.9221 19.8712 19.4271 19.3803C18.9091 18.8661 18.1671 18.6654 17.4538 18.6894C15.9302 18.7417 14.5326 19.7054 13.6777 20.9353C12.5692 22.5293 12.4391 24.6474 13.2585 26.3965C13.3862 26.6694 13.7873 26.4322 13.6605 26.161Z" fill="#F73E20"/>
<path d="M17.5676 18.947C17.3988 17.5288 17.5454 16.0095 18.3789 14.8111C19.0649 13.825 20.2426 13.0968 21.4697 13.2635C22.5659 13.412 23.6456 14.2554 23.6621 15.4405C23.6761 16.4623 22.9242 17.5537 21.8255 17.4874C21.249 17.4525 20.6083 17.0578 20.5366 16.4357C20.4749 15.9016 20.8562 15.2697 21.4236 15.2398C21.7209 15.2241 21.7226 14.7563 21.4236 14.7721C20.7788 14.8053 20.2723 15.3087 20.1174 15.9249C19.9478 16.5975 20.2509 17.2485 20.8134 17.625C21.3651 17.9949 22.0965 18.0563 22.7035 17.7959C23.2956 17.5413 23.7222 17.0188 23.9512 16.4225C24.1785 15.8303 24.1908 15.1461 23.9471 14.5573C23.6852 13.9253 23.1745 13.4202 22.5667 13.12C21.2309 12.4607 19.7155 12.8198 18.6416 13.8051C17.2325 15.098 16.8849 17.115 17.1023 18.9453C17.1386 19.2422 17.6039 19.2456 17.5676 18.947Z" fill="#F73E20"/>
<path d="M22.9042 13.0978C23.4569 11.2948 24.3192 8.89712 26.5601 8.83907C27.5253 8.81419 28.4041 9.46108 28.4971 10.4704C28.591 11.4863 27.7485 12.4741 26.7075 12.3978C26.178 12.3588 25.6838 11.9491 25.636 11.3968C25.5932 10.8992 26.0454 10.3891 26.5609 10.4837C26.8533 10.5376 26.9785 10.0864 26.6845 10.0325C26.1113 9.92717 25.5306 10.2407 25.2869 10.7756C25.039 11.3188 25.2103 11.9524 25.6113 12.3729C26.5527 13.359 28.1587 12.7602 28.7162 11.668C29.2828 10.5583 28.8208 9.11275 27.6777 8.59358C26.6169 8.11173 25.3453 8.46089 24.4765 9.17744C23.3465 10.1096 22.8713 11.6207 22.4562 12.9734C22.3681 13.2611 22.8169 13.3847 22.9042 13.0978Z" fill="#F73E20"/>
<path d="M28.3984 9.14707C28.6117 8.47779 28.9666 7.84086 29.5102 7.38803C30.0422 6.94516 30.7884 6.71129 31.4703 6.87964C32.0888 7.03224 32.6052 7.54976 32.7139 8.18918C32.8144 8.77719 32.4553 9.35607 31.906 9.56258C31.224 9.81884 30.4977 9.27645 30.5808 8.53668C30.6146 8.23811 30.1493 8.2406 30.1163 8.53668C30.0241 9.35524 30.7332 10.1141 31.5444 10.1025C32.2988 10.0917 33.017 9.48462 33.1619 8.73904C33.32 7.92545 32.8695 7.09693 32.1843 6.6748C31.4357 6.21368 30.4713 6.29413 29.7161 6.69304C28.8209 7.16494 28.2518 8.07805 27.9512 9.02267C27.8589 9.31046 28.3069 9.4332 28.3984 9.14707Z" fill="#F73E20"/>
<path d="M32.7288 7.03151C32.8351 6.14743 33.7344 5.62826 34.5596 5.89365C34.9689 6.02551 35.3552 6.37384 35.417 6.8192C35.4705 7.20153 35.2803 7.65849 34.9047 7.80363C34.5102 7.95623 34.0309 7.68669 33.9658 7.2687C33.9461 7.1443 33.7912 7.07381 33.68 7.10532C33.5483 7.14264 33.498 7.26704 33.5178 7.3931C33.6059 7.95789 34.1948 8.34768 34.7433 8.30953C35.3387 8.26889 35.7835 7.75802 35.8691 7.18245C35.9655 6.53639 35.6171 5.93512 35.0661 5.6125C34.5464 5.30813 33.8934 5.27496 33.3432 5.51381C32.7214 5.78334 32.3434 6.36637 32.2643 7.03151C32.2495 7.15674 32.3821 7.26538 32.4966 7.26538C32.6349 7.26538 32.714 7.15674 32.7288 7.03151Z" fill="#F73E20"/>
<path d="M3.08324 46.1737C4.42814 45.9672 5.59432 45.1909 6.53649 44.233C7.53219 43.2204 8.39612 41.988 9.02039 40.71C9.35311 40.0282 9.60512 39.3092 9.69819 38.5528C9.79619 37.76 9.68748 36.9597 9.46429 36.1967C9.24028 35.4287 8.91168 34.6947 8.57813 33.9699C8.29235 33.3495 7.99174 32.735 7.64996 32.1436C6.89474 30.8366 5.91139 29.6166 4.55002 28.92C4.44708 28.8677 4.35566 28.8885 4.26836 28.9565C3.99494 29.1704 4.27083 29.5519 4.56155 29.4997C4.85557 29.4475 4.73121 28.9963 4.43802 29.0485C4.42731 29.0502 4.41578 29.0527 4.40508 29.0543C4.46437 29.0618 4.52449 29.0701 4.58379 29.0776C4.58791 29.1472 4.59285 29.2169 4.59697 29.2866C4.50308 29.299 4.40919 29.3106 4.31531 29.323C5.45266 29.9052 6.30918 30.8689 6.98451 31.9413C7.33288 32.4945 7.63678 33.0742 7.92092 33.663C8.23305 34.3099 8.53695 34.9659 8.78814 35.6393C9.05827 36.365 9.26416 37.1247 9.27075 37.9051C9.27734 38.6399 9.0978 39.3614 8.81696 40.0365C8.5386 40.7075 8.16305 41.3361 7.76279 41.9399C7.40206 42.4848 7.01416 43.0114 6.58096 43.5007C5.6182 44.588 4.4199 45.4986 2.95805 45.7225C2.66486 45.7681 2.79005 46.2185 3.08324 46.1737Z" fill="#F73E20"/>
<path d="M3.21505 40.5676C5.4247 39.2174 6.96478 37.0486 8.20509 34.8127C8.89112 33.577 9.54669 32.2849 9.85965 30.8949C10.1685 29.5248 10.0631 28.1357 9.62822 26.8054C9.13655 25.3018 8.31874 23.9342 7.49928 22.5932C7.3428 22.3369 6.9409 22.5716 7.0982 22.8295C8.47604 25.0853 9.96177 27.6016 9.49316 30.3616C9.26173 31.7218 8.66629 32.9824 8.01731 34.1866C7.42516 35.2855 6.78113 36.3628 6.0185 37.3505C5.16857 38.4511 4.16792 39.438 2.98033 40.1637C2.72584 40.3196 2.95892 40.7243 3.21505 40.5676Z" fill="#F73E20"/>
<path d="M3.5725 33.7108C6.05558 33.1543 8.30723 31.6822 9.86379 29.6602C11.5431 27.4791 12.3123 24.7049 12.0528 21.9606C11.903 20.3774 11.4294 18.8356 10.6371 17.4589C10.4872 17.1985 10.0862 17.434 10.236 17.6953C11.5884 20.0456 11.9779 22.9135 11.338 25.55C10.7442 27.9941 9.23375 30.1487 7.19129 31.5901C6.06299 32.3863 4.79469 32.9594 3.44979 33.2604C3.15742 33.3251 3.28096 33.7763 3.5725 33.7108Z" fill="#F73E20"/>
<path d="M5.49391 26.3581C7.91686 26.028 10.2138 24.9183 12.0133 23.2555C13.8853 21.5263 15.1503 19.1909 15.6247 16.6813C15.8981 15.2333 15.9121 13.7512 15.6601 12.299C15.609 12.003 15.161 12.1282 15.2121 12.4234C15.6403 14.8891 15.2376 17.4907 14.1077 19.7192C13.0206 21.863 11.2639 23.6022 9.14481 24.7077C7.96628 25.3222 6.68562 25.7278 5.37037 25.9069C5.24519 25.9243 5.1793 26.0844 5.20813 26.1947C5.24354 26.3299 5.36955 26.3747 5.49391 26.3581Z" fill="#F73E20"/>
<path d="M8.90436 19.8611C11.2993 20.333 13.3838 18.8343 15.222 17.5066C17.0149 16.2119 18.8704 14.807 19.8554 12.7577C20.3908 11.6431 20.6419 10.409 20.4344 9.1791C20.3899 8.91703 19.9716 8.98172 19.9781 9.24131C19.9814 9.36405 19.9839 9.48762 19.9872 9.61036C19.9946 9.91059 20.4591 9.91225 20.4517 9.61036C20.4484 9.48762 20.4459 9.36405 20.4426 9.24131C20.2903 9.26204 20.1387 9.28277 19.9864 9.30351C20.3422 11.4158 19.1793 13.432 17.7388 14.8676C16.9869 15.6165 16.1436 16.2625 15.2879 16.8854C14.4067 17.5273 13.5263 18.1916 12.5635 18.7066C11.4887 19.2805 10.2468 19.6512 9.02707 19.4107C8.73553 19.3527 8.61034 19.803 8.90436 19.8611Z" fill="#F73E20"/>
<path d="M18.2627 10.3054C19.5318 10.7392 20.913 10.6853 22.1953 10.3369C22.7825 10.1769 23.3367 9.95378 23.8457 9.6154C24.3563 9.27537 24.8183 8.86153 25.2367 8.41368C25.6996 7.9169 26.1155 7.37285 26.4787 6.79812C26.6393 6.54351 26.2382 6.30881 26.0776 6.56176C25.478 7.51053 24.7245 8.40788 23.8152 9.06969C22.8582 9.76634 21.6641 10.089 20.4929 10.1429C19.7764 10.176 19.0665 10.0881 18.3862 9.85508C18.1021 9.75722 17.9802 10.2092 18.2627 10.3054Z" fill="#F73E20"/>
<path d="M22.6737 8.35272C24.5416 9.38442 26.9373 8.94653 28.2864 7.2754C28.6389 6.83833 28.9082 6.34819 29.0836 5.81326C29.1775 5.52714 28.7294 5.40439 28.6356 5.68886C28.2855 6.75125 27.4924 7.63699 26.4827 8.10391C25.3536 8.62557 23.9914 8.54678 22.9084 7.94882C22.6465 7.80369 22.4118 8.20758 22.6737 8.35272Z" fill="#F73E20"/>
<path d="M26.2158 6.90478C28.0664 7.61719 30.1574 6.962 31.3228 5.36635C31.2355 5.40201 31.1482 5.43767 31.0609 5.47416C31.6967 5.69477 32.3934 5.78848 33.0614 5.8341C34.0422 5.90044 35.0528 5.81419 35.9076 5.28507C36.0732 5.18306 36.2437 5.06612 36.3779 4.92265C36.583 4.7037 36.2552 4.37196 36.0493 4.59174C35.7553 4.90606 35.2677 5.12335 34.8279 5.24526C33.866 5.51148 32.7756 5.39952 31.812 5.1897C31.6012 5.14408 31.3887 5.09349 31.1853 5.023C31.0807 4.98651 30.9818 5.04954 30.9234 5.13081C29.875 6.56641 27.9832 7.08641 26.341 6.45445C26.0593 6.3458 25.9383 6.7978 26.2158 6.90478Z" fill="#F73E20"/>
<path d="M23.9503 31.8338C23.8292 30.5251 24.0944 29.2214 24.5564 28.0006C25.0143 26.7922 25.6691 25.637 26.4597 24.6177C28.0097 22.6198 30.4952 20.9843 33.1133 21.6213C34.3215 21.9149 35.4935 22.6604 36.0535 23.8083C36.1853 24.0786 36.5864 23.8414 36.4546 23.5719C35.9193 22.4738 34.8585 21.7117 33.7318 21.3169C32.4726 20.8757 31.0882 20.9536 29.8462 21.4164C27.261 22.3793 25.4195 24.8159 24.3489 27.2874C23.732 28.7113 23.3416 30.2713 23.4858 31.833C23.5129 32.1307 23.9774 32.1332 23.9503 31.8338Z" fill="#F73E20"/>
<path d="M19.9289 46.4521C20.7096 44.2925 21.4904 42.1328 22.2719 39.9732C22.374 39.6896 21.926 39.5677 21.8239 39.8488C21.0431 42.0084 20.2624 44.1681 19.4808 46.3277C19.3787 46.6105 19.8276 46.7332 19.9289 46.4521Z" fill="#F73E20"/>
<path d="M18.8522 43.3158C19.6297 41.1155 20.2787 38.8713 21.0561 36.6711C21.1566 36.3866 20.7077 36.2647 20.6081 36.5467C19.8306 38.7469 19.1817 40.9911 18.4042 43.1914C18.3037 43.475 18.7526 43.5978 18.8522 43.3158Z" fill="#F73E20"/>
<path d="M17.4843 39.2848C18.3762 37.4785 19.3629 35.7211 20.4417 34.0218C20.6032 33.7671 20.2012 33.5324 20.0407 33.7854C18.9626 35.4855 17.9751 37.2421 17.0832 39.0484C16.9506 39.3179 17.3509 39.5551 17.4843 39.2848Z" fill="#F73E20"/>
<path d="M17.0049 34.8159C17.8993 33.0369 18.8448 31.2713 20.2226 29.8182C20.4294 29.601 20.1016 29.2692 19.894 29.4873C18.4874 30.9694 17.5156 32.7641 16.603 34.5795C16.4688 34.8482 16.8699 35.0846 17.0049 34.8159Z" fill="#F73E20"/>
<path d="M17.8459 28.7991C18.718 27.638 19.8027 26.6453 21.0273 25.8723C21.2802 25.7131 21.0471 25.3084 20.7926 25.4684C19.4963 26.2861 18.3664 27.3353 17.4448 28.5627C17.3682 28.6639 17.43 28.8231 17.528 28.8828C17.6466 28.955 17.7709 28.8994 17.8459 28.7991Z" fill="#F73E20"/>
<path d="M19.8323 23.3037C20.8659 22.5208 21.986 21.8615 23.1711 21.3398C23.4445 21.2196 23.2082 20.8165 22.9364 20.9359C21.7513 21.4576 20.6312 22.1169 19.5976 22.8998C19.4963 22.9761 19.4469 23.1014 19.5144 23.2199C19.5713 23.3203 19.7327 23.38 19.8323 23.3037Z" fill="#F73E20"/>
<path d="M21.7481 19.5527C22.8599 18.9282 24.0944 18.5483 25.3644 18.4472C25.6601 18.4239 25.6625 17.9554 25.3644 17.9794C24.0113 18.0872 22.7001 18.4828 21.5142 19.1488C21.2531 19.2956 21.487 19.7003 21.7481 19.5527Z" fill="#F73E20"/>
<path d="M24.4215 16.2993C25.7532 15.9825 27.1417 16.0149 28.4998 16.0845C28.7988 16.0995 28.7979 15.6317 28.4998 15.6168C27.0997 15.5454 25.6716 15.5214 24.2979 15.8482C24.0072 15.917 24.1307 16.3682 24.4215 16.2993Z" fill="#F73E20"/>
<path d="M27.9964 13.2357C30.4515 13.5675 32.7806 14.6008 34.7736 16.0671C35.3435 16.4859 35.8838 16.9446 36.3969 17.433C36.6143 17.6396 36.9429 17.3095 36.7255 17.1021C34.8543 15.3224 32.5928 13.9415 30.1155 13.2142C29.4212 13.0102 28.7137 12.865 27.9964 12.768C27.8712 12.7514 27.765 12.8874 27.7642 13.0019C27.7633 13.142 27.8729 13.2191 27.9964 13.2357Z" fill="#F73E20"/>
<path d="M30.5586 11.0777C32.5648 11.6582 34.4393 12.5863 36.0445 13.9406C36.2718 14.133 36.602 13.8037 36.3731 13.6097C34.7045 12.2023 32.7691 11.2303 30.6822 10.6265C30.3947 10.5428 30.272 10.9947 30.5586 11.0777Z" fill="#F73E20"/>
<path d="M33.9789 9.07489C34.8651 9.51113 35.6862 10.0676 36.4167 10.7344C36.6374 10.9359 36.9668 10.6067 36.7453 10.4035C35.9859 9.71017 35.1344 9.12465 34.2136 8.671C34.1008 8.61543 33.9624 8.64031 33.8957 8.75476C33.8356 8.8576 33.8661 9.01849 33.9789 9.07489Z" fill="#F73E20"/>
<path d="M33.6537 18.4157C34.6972 19.0004 35.5183 19.9508 36.2982 20.8432C36.4958 21.0696 36.8236 20.7379 36.6268 20.5123C35.8205 19.5901 34.9673 18.6164 33.8884 18.0118C33.6265 17.8658 33.3918 18.2689 33.6537 18.4157Z" fill="#F73E20"/>
<path d="M18.3829 43.2141C20.5901 44.4582 23.0213 45.2518 25.5736 45.1117C25.8709 45.0951 25.8725 44.6273 25.5736 44.6439C23.0995 44.7799 20.7565 44.0161 18.6176 42.8103C18.3558 42.6626 18.121 43.0665 18.3829 43.2141Z" fill="#F73E20"/>
<path d="M16.9515 39.5352C18.644 40.6631 20.6469 41.2785 22.6762 41.3042C22.9751 41.3075 22.9751 40.8397 22.6762 40.8364C20.7243 40.8124 18.8136 40.2161 17.1862 39.1313C16.9359 38.9646 16.7028 39.3693 16.9515 39.5352Z" fill="#F73E20"/>
<path d="M16.7735 35.2213C17.9751 36.6652 19.4304 37.8404 21.2315 38.4184C21.5173 38.5097 21.6392 38.0585 21.3551 37.9673C19.6297 37.4133 18.2519 36.2721 17.1021 34.8904C16.9103 34.6599 16.5833 34.9924 16.7735 35.2213Z" fill="#F73E20"/>
<path d="M17.4581 28.7346C17.6195 30.8727 18.5378 32.9129 20.0375 34.4372C20.2484 34.6512 20.577 34.3203 20.3661 34.1063C18.9562 32.6732 18.0758 30.7474 17.9234 28.7346C17.8995 28.4361 17.435 28.4336 17.4581 28.7346Z" fill="#F73E20"/>
<path d="M19.5704 22.5954C18.4882 24.8703 18.5994 27.6353 19.8817 29.8065C20.034 30.0653 20.436 29.8298 20.2828 29.5702C19.0894 27.5499 18.9609 24.954 19.9715 22.8318C20.0999 22.5614 19.6997 22.3242 19.5704 22.5954Z" fill="#F73E20"/>
<path d="M22.0042 19.0511C21.4697 20.7314 21.2424 22.5045 21.3379 24.2661C21.3544 24.5679 21.7826 24.5663 21.8024 24.2661C21.8073 24.1856 21.8131 24.1043 21.818 24.0239C21.8378 23.7237 21.3733 23.7245 21.3536 24.0239C21.3486 24.1043 21.3428 24.1856 21.3379 24.2661C21.4927 24.2661 21.6476 24.2661 21.8024 24.2661C21.7093 22.5419 21.9292 20.8201 22.4522 19.1755C22.5436 18.8886 22.0956 18.765 22.0042 19.0511Z" fill="#F73E20"/>
<path d="M24.8825 15.0161C23.9823 16.3406 23.5162 17.9487 23.8958 19.5385C23.9658 19.8313 24.4139 19.7069 24.3439 19.4141C23.993 17.9437 24.4551 16.4724 25.2836 15.2516C25.4532 15.0037 25.0505 14.769 24.8825 15.0161Z" fill="#F73E20"/>
<path d="M27.8325 12.8368C26.878 13.9514 26.2257 15.3613 26.3945 16.8608C26.4275 17.1568 26.8928 17.1602 26.859 16.8608C26.7042 15.4824 27.2807 14.1952 28.1611 13.1677C28.3555 12.9404 28.0285 12.6079 27.8325 12.8368Z" fill="#F73E20"/>
<path d="M30.8459 10.763C29.5093 12.1207 28.6824 13.922 28.5045 15.8237C28.6593 15.8237 28.8142 15.8237 28.969 15.8237C28.9707 15.7573 28.9723 15.6918 28.9748 15.6255C28.983 15.3244 28.5185 15.3244 28.5103 15.6255C28.5086 15.6918 28.507 15.7573 28.5045 15.8237C28.4963 16.1289 28.9418 16.1181 28.969 15.8237C29.1345 14.0481 29.9285 12.3595 31.1745 11.0939C31.3854 10.8791 31.0576 10.5482 30.8459 10.763Z" fill="#F73E20"/>
<path d="M34.3619 8.85438C32.5451 10.6955 31.3287 13.1089 30.9391 15.6757C30.8947 15.9702 31.3419 16.0971 31.3872 15.8001C31.7652 13.308 32.9248 10.9742 34.6905 9.18529C34.9014 8.97132 34.5728 8.64041 34.3619 8.85438Z" fill="#F73E20"/>
<path d="M36.509 10.3622C35.496 11.0854 34.6296 11.9936 33.8909 12.9954C33.1521 13.9973 32.5427 15.1069 32.1539 16.2937C32.0601 16.5807 32.5089 16.7034 32.602 16.4181C32.9709 15.2902 33.5565 14.2386 34.2532 13.284C34.9492 12.3295 35.7826 11.452 36.7437 10.7653C36.985 10.5928 36.7536 10.1873 36.509 10.3622Z" fill="#F73E20"/>
<path d="M36.3295 13.2329C34.8265 14.4213 34.0004 16.1887 33.5475 18.0207C33.475 18.3126 33.923 18.4378 33.9955 18.1451C34.432 16.3827 35.2119 14.7083 36.6581 13.5638C36.8928 13.378 36.5617 13.0488 36.3295 13.2329Z" fill="#F73E20"/>
<path d="M36.3978 17.1023C35.2967 18.44 34.4352 19.9444 33.9748 21.6263C33.8949 21.9166 34.343 22.041 34.4229 21.7507C34.861 20.1493 35.6772 18.7079 36.7264 17.4332C36.915 17.2026 36.5889 16.87 36.3978 17.1023Z" fill="#F73E20"/>
<path d="M36.8598 3.9873H36.0774V46.4746H36.8598V3.9873Z" fill="#F73E20"/>
<path d="M36.8598 45.585H1.6355V46.7751H36.8598V45.585Z" fill="#F73E20"/>
<path d="M69.9748 39.028C69.9748 20.4523 55.1974 5.35408 36.835 5.00078V4.55957C55.5013 4.55957 70.6336 19.798 70.6336 38.5951V45.7614H69.9748V39.028Z" fill="#F73E20"/>
<path d="M36.7764 8.21658C39.6021 9.22092 42.2663 10.6714 44.6605 12.4852C47.0694 14.3106 49.2041 16.5167 50.9402 18.9997C52.7529 21.5931 54.1439 24.48 55.0523 27.5163C55.9245 30.4298 56.4104 33.524 56.2375 36.5711C56.0769 39.3958 55.3505 42.3068 53.6621 44.6132C53.4563 44.8944 53.2347 45.1614 53.0008 45.4185C52.799 45.6399 53.1268 45.9717 53.3294 45.7494C55.3011 43.5832 56.2548 40.6854 56.5941 37.8109C56.9573 34.7399 56.5949 31.5933 55.8364 28.6085C55.0416 25.4786 53.7437 22.4714 52.0051 19.7553C50.3267 17.1329 48.2331 14.785 45.83 12.817C43.4572 10.8738 40.7996 9.29722 37.9558 8.16267C37.6066 8.02334 37.2541 7.89148 36.8999 7.76542C36.6174 7.66507 36.4956 8.11706 36.7764 8.21658Z" fill="#F73E20"/>
<path d="M42.7491 20.5457C41.8473 21.2713 40.4069 20.7215 39.916 19.7611C39.3074 18.5685 40.056 17.0516 41.1291 16.4288C42.5103 15.6276 44.2381 15.9644 45.5435 16.7481C46.8744 17.5467 47.9582 18.7758 48.8773 20.0149C50.7164 22.4938 51.9386 25.4164 52.4377 28.4676C52.931 31.4847 52.6641 34.5906 51.6931 37.4859C50.732 40.3512 49.0972 42.991 46.9452 45.1017C46.68 45.3621 46.4066 45.6134 46.1266 45.8573C45.9001 46.0546 46.2295 46.3839 46.4552 46.1882C48.8773 44.0775 50.737 41.3498 51.8801 38.3401C53.0347 35.2997 53.4045 32.0047 52.9532 28.7827C52.4961 25.5192 51.2097 22.3619 49.2414 19.7263C48.2687 18.4242 47.1347 17.1395 45.723 16.3094C44.3156 15.4817 42.4988 15.1682 41.0048 15.9619C39.7793 16.6121 38.9656 18.1231 39.3296 19.5106C39.6558 20.7546 41.0344 21.5732 42.2772 21.2796C42.5745 21.2091 42.8397 21.0665 43.0769 20.8757C43.3108 20.6883 42.9805 20.359 42.7491 20.5457Z" fill="#F73E20"/>
<path d="M43.6937 30.8013C43.3643 32.076 42.0861 32.9029 40.8162 32.941C39.421 32.9825 38.2581 31.9939 37.7854 30.7134C37.2731 29.3243 37.596 27.8232 38.5777 26.7292C39.6162 25.5715 41.1365 25.0191 42.6692 25.1527C44.3427 25.2986 45.8745 26.2018 46.9641 27.464C48.0463 28.7172 48.7175 30.3012 49.0404 31.9193C49.6819 35.1421 48.8839 38.6386 46.9007 41.2502C44.9554 43.8121 41.8761 45.4733 38.6897 45.7362C38.2968 45.7685 37.9032 45.7793 37.5087 45.771C37.2097 45.7644 37.2097 46.2321 37.5087 46.2388C40.9471 46.3126 44.3806 44.8139 46.6825 42.2405C49.0363 39.6098 50.0863 35.935 49.5963 32.4401C49.1096 28.9643 46.89 25.3965 43.2292 24.7579C41.5664 24.4676 39.8625 24.8956 38.6007 26.0434C37.4313 27.1074 36.8342 28.6807 37.1669 30.2498C37.47 31.6788 38.5332 33.0182 39.9975 33.3325C41.377 33.6286 42.9113 33.0372 43.716 31.8662C43.912 31.5817 44.0544 31.26 44.1409 30.9257C44.2167 30.6338 43.7695 30.5094 43.6937 30.8013Z" fill="#F73E20"/>
<path d="M40.8177 40.0372C40.6053 40.3748 40.2108 40.5299 39.8237 40.5266C39.3962 40.5224 39.0009 40.3059 38.6929 40.0198C38.0308 39.4053 37.6231 38.4889 37.5267 37.5932C37.4312 36.7099 37.6313 35.8051 38.1699 35.091C38.6682 34.4309 39.4333 33.9391 40.2585 33.8379C42.0399 33.6198 43.5116 35.1433 44.1689 36.6585C44.5576 37.555 44.7272 38.5958 44.4003 39.5388C44.1013 40.4013 43.4079 41.0748 42.6881 41.5972C41.8472 42.2076 40.8943 42.6439 39.9118 42.9681C38.9235 43.2941 37.8965 43.5163 36.8596 43.6092C36.564 43.6358 36.5615 44.1035 36.8596 44.077C37.8949 43.9841 38.9219 43.7759 39.9126 43.4591C40.896 43.1448 41.867 42.7268 42.7235 42.1421C43.5611 41.5699 44.3558 40.8475 44.7594 39.8929C45.1909 38.8704 45.0789 37.7109 44.6828 36.6958C44.005 34.9558 42.3801 33.2051 40.3689 33.3602C39.4325 33.4323 38.5521 33.915 37.9451 34.6316C37.2928 35.4012 36.9856 36.3997 37.0466 37.4066C37.1158 38.5378 37.6132 39.7453 38.5027 40.471C38.9194 40.8102 39.4374 41.0366 39.9818 40.9885C40.4834 40.9445 40.9454 40.7082 41.2188 40.2736C41.3794 40.019 40.9783 39.7843 40.8177 40.0372Z" fill="#F73E20"/>
<path d="M60.0129 46.5434C61.9244 45.4976 63.1903 43.5337 63.5378 41.3898C63.8656 39.3671 63.4901 36.8301 61.6296 35.645C60.8324 35.1366 59.8046 34.9143 58.8846 35.1755C57.9886 35.4302 57.3338 36.1401 57.0406 37.0159C56.5119 38.5958 57.1444 40.7811 58.878 41.2745C59.8037 41.5375 60.8835 41.1734 61.3158 40.271C61.6988 39.4716 61.3727 38.3926 60.5491 38.0161C60.3374 37.919 60.1109 37.8767 59.8795 37.8867C59.5814 37.8991 59.5797 38.3669 59.8795 38.3544C60.6636 38.3221 61.1857 39.1655 60.9691 39.8912C60.727 40.704 59.7848 41.0365 59.0255 40.83C57.5471 40.4294 57.0571 38.5535 57.4607 37.2257C57.6847 36.4876 58.2134 35.8689 58.9596 35.6408C59.7436 35.4011 60.6133 35.5811 61.3076 35.9949C62.9572 36.9794 63.3344 39.1863 63.1326 40.9536C62.888 43.1024 61.6831 45.097 59.7782 46.1395C59.5163 46.283 59.7502 46.6869 60.0129 46.5434Z" fill="#F73E20"/>
<path d="M61.1345 35.7506C62.5626 34.8093 63.4875 33.1647 63.5188 31.4405C63.5501 29.7038 62.6565 27.9921 61.2325 27.0176C60.4782 26.5017 59.5376 26.1932 58.6218 26.3159C57.7801 26.4287 57.0257 26.928 56.5777 27.6537C55.6504 29.1548 56.3957 31.4902 58.2314 31.817C59.1258 31.9762 60.0935 31.4985 60.3933 30.6053C60.6676 29.7868 60.1413 28.7816 59.2856 28.6124C58.9932 28.5543 58.8689 29.0055 59.1621 29.0636C59.7798 29.1855 60.1446 29.8888 59.9453 30.4809C59.7262 31.1311 58.971 31.4828 58.3262 31.36C56.7449 31.0606 56.1923 29.0403 57.0422 27.793C57.449 27.1959 58.126 26.8061 58.8434 26.7605C59.6323 26.7107 60.4073 27.0043 61.0472 27.4546C62.2406 28.2948 63.0049 29.737 63.0526 31.2C63.1062 32.8379 62.2587 34.4502 60.8998 35.3459C60.6511 35.5109 60.8842 35.9156 61.1345 35.7506Z" fill="#F73E20"/>
<path d="M59.7914 26.3964C60.5252 24.8298 60.5046 22.9654 59.6802 21.437C58.9662 20.1117 57.6311 18.997 56.1306 18.7457C55.4297 18.628 54.6737 18.6794 54.0502 19.0501C53.4276 19.42 53.0603 20.0602 52.9887 20.776C52.8371 22.287 54.047 23.8586 55.5994 23.8893C56.4156 23.9051 57.2803 23.3627 57.459 22.5251C57.6196 21.772 57.1403 20.9029 56.3596 20.766C56.0672 20.7146 55.942 21.1649 56.236 21.2172C56.7829 21.3134 57.137 21.9155 56.9986 22.4529C56.8405 23.0658 56.1998 23.4332 55.5986 23.4224C54.2874 23.3984 53.3181 22.0283 53.4523 20.7768C53.5158 20.1855 53.8542 19.6796 54.3764 19.4026C54.901 19.1247 55.545 19.104 56.1174 19.2176C57.3857 19.4698 58.5017 20.3688 59.1622 21.4693C60.0072 22.8775 60.0854 24.6756 59.3895 26.1617C59.2635 26.4313 59.6637 26.6693 59.7914 26.3964Z" fill="#F73E20"/>
<path d="M55.9477 18.9471C56.1445 17.29 55.89 15.5119 54.7889 14.2049C53.8533 13.0935 52.3536 12.4682 50.9354 12.936C49.635 13.3647 48.706 14.5913 48.9761 15.9954C49.224 17.2826 50.475 18.3093 51.7919 17.844C52.4886 17.5977 53.0536 16.9558 52.9754 16.1787C52.9037 15.4613 52.3676 14.8119 51.6264 14.773C51.3274 14.7572 51.3282 15.225 51.6264 15.2407C52.1304 15.2673 52.4886 15.7723 52.5166 16.2509C52.5488 16.7982 52.1353 17.2345 51.6437 17.4012C50.5434 17.776 49.5921 16.8762 49.4151 15.8221C49.2182 14.6494 50.0896 13.6674 51.161 13.3548C52.3519 13.0073 53.5585 13.5289 54.3647 14.4255C55.4601 15.6438 55.6693 17.373 55.4823 18.9471C55.4469 19.2448 55.9122 19.2423 55.9477 18.9471Z" fill="#F73E20"/>
<path d="M50.5936 12.9732C50.2164 11.7416 49.8013 10.4586 48.9093 9.4966C48.1344 8.66062 46.9023 8.16384 45.7732 8.44914C44.5806 8.75019 43.8262 10.0348 44.1623 11.2333C44.4983 12.43 45.9247 13.3166 47.0884 12.6481C47.6485 12.3263 48.01 11.6272 47.8395 10.982C47.6699 10.3376 47.0127 9.91293 46.3653 10.0324C46.0713 10.0863 46.1957 10.5374 46.4889 10.4835C46.9237 10.4039 47.3594 10.7804 47.4121 11.2084C47.4681 11.6645 47.1584 12.1157 46.7524 12.2956C45.7616 12.7352 44.6803 11.847 44.5568 10.8551C44.4332 9.86068 45.1711 8.96831 46.1438 8.8522C47.0761 8.74107 48.0042 9.18726 48.6219 9.8723C49.4282 10.7672 49.7988 11.9647 50.1447 13.0968C50.2337 13.3837 50.6825 13.2618 50.5936 12.9732Z" fill="#F73E20"/>
<path d="M45.1004 9.02227C44.8311 8.17634 44.3592 7.38597 43.6262 6.87012C42.9106 6.36671 41.9297 6.19089 41.1152 6.54585C40.3863 6.86431 39.8254 7.64058 39.8559 8.45749C39.8847 9.22297 40.4695 9.91547 41.2173 10.0689C42.1216 10.2538 43.0407 9.48836 42.9336 8.5371C42.9007 8.24103 42.4354 8.23771 42.4691 8.5371C42.5391 9.16243 41.9947 9.72472 41.3655 9.62354C40.7874 9.53066 40.3196 8.99158 40.3188 8.40275C40.3188 7.77245 40.7742 7.18195 41.3449 6.95305C41.9923 6.6943 42.7425 6.85021 43.3133 7.22259C43.9853 7.65966 44.4119 8.39528 44.6508 9.1475C44.743 9.43279 45.1919 9.31005 45.1004 9.02227Z" fill="#F73E20"/>
<path d="M40.7864 7.0319C40.7148 6.43809 40.4109 5.90399 39.8854 5.60211C39.3715 5.30686 38.7275 5.27866 38.1856 5.51254C37.6148 5.75886 37.1602 6.30871 37.1619 6.95394C37.1627 7.52702 37.5209 8.13078 38.0958 8.27675C38.7003 8.431 39.4325 8.03872 39.5329 7.39266C39.5527 7.2666 39.5008 7.1422 39.3707 7.10488C39.2603 7.07337 39.1047 7.14386 39.0849 7.26826C39.0281 7.63483 38.6641 7.88198 38.3009 7.84134C37.8981 7.79656 37.6412 7.37608 37.6272 6.99541C37.5926 6.03751 38.7893 5.59796 39.5461 5.9496C39.9736 6.14865 40.2659 6.56083 40.3227 7.03024C40.3376 7.15547 40.4191 7.26412 40.555 7.26412C40.6678 7.26577 40.8012 7.15796 40.7864 7.0319Z" fill="#F73E20"/>
<path d="M70.0909 45.7227C68.8078 45.5253 67.7174 44.7971 66.8213 43.8807C65.8759 42.9137 65.0638 41.7476 64.461 40.5351C64.1373 39.8849 63.882 39.1808 63.8054 38.4535C63.7239 37.683 63.8474 36.92 64.0755 36.1844C64.2979 35.4662 64.6084 34.7786 64.9238 34.0977C65.1948 33.5139 65.4797 32.9366 65.8017 32.3802C66.5199 31.137 67.4407 29.9867 68.7345 29.324C68.6406 29.3116 68.5467 29.3 68.4528 29.2875C68.4569 29.2179 68.4619 29.1482 68.466 29.0785C68.5253 29.0711 68.5854 29.0628 68.6447 29.0553C68.634 29.0537 68.6225 29.0512 68.6118 29.0495C68.3194 28.9973 68.1942 29.4476 68.4882 29.5007C68.779 29.5529 69.054 29.1714 68.7814 28.9575C68.6941 28.8894 68.6019 28.8687 68.4998 28.921C67.3031 29.533 66.3922 30.5548 65.6799 31.681C65.3142 32.2591 64.9971 32.8653 64.7014 33.4824C64.372 34.1699 64.0508 34.8665 63.7889 35.5839C63.5138 36.3378 63.3145 37.134 63.3137 37.9417C63.3129 38.7056 63.4949 39.4586 63.784 40.1619C64.3325 41.4972 65.1865 42.7561 66.1394 43.8326C67.1483 44.9721 68.4355 45.94 69.9674 46.1747C70.2597 46.2186 70.3858 45.7683 70.0909 45.7227Z" fill="#F73E20"/>
<path d="M70.0695 40.1635C67.9372 38.8606 66.4597 36.759 65.2614 34.6044C64.6042 33.4226 63.9783 32.1968 63.6621 30.8723C63.3433 29.5371 63.4512 28.1944 63.8803 26.8981C64.3605 25.4468 65.1601 24.1256 65.9516 22.8294C66.1089 22.5723 65.707 22.3367 65.5505 22.593C64.115 24.9434 62.6466 27.5152 63.0922 30.3822C63.3137 31.8062 63.9388 33.134 64.6141 34.3904C65.2252 35.5266 65.8948 36.6338 66.6829 37.6547C67.5642 38.7959 68.6035 39.8143 69.8348 40.5666C70.0917 40.7241 70.3248 40.3194 70.0695 40.1635Z" fill="#F73E20"/>
<path d="M69.6016 33.2596C67.2116 32.7238 65.053 31.3198 63.5508 29.3758C61.9424 27.2933 61.2242 24.6444 61.4565 22.0245C61.5915 20.5034 62.0544 19.0164 62.8145 17.6953C62.9644 17.434 62.5633 17.1985 62.4135 17.4589C61.0093 19.8989 60.6008 22.8712 61.2497 25.6122C61.8592 28.1848 63.4421 30.4365 65.5776 31.96C66.7463 32.7935 68.0788 33.3973 69.4772 33.7108C69.7688 33.7763 69.8932 33.3251 69.6016 33.2596Z" fill="#F73E20"/>
<path d="M67.6804 25.9067C65.3554 25.5899 63.1474 24.554 61.4105 22.9658C59.592 21.303 58.3707 19.0745 57.893 16.6512C57.6188 15.262 57.5965 13.819 57.8395 12.4232C57.8905 12.1288 57.4433 12.0027 57.3915 12.2988C56.9443 14.8747 57.3453 17.5626 58.514 19.8981C59.6266 22.1232 61.455 23.9478 63.6457 25.0972C64.867 25.7383 66.1922 26.1712 67.5577 26.3578C67.6828 26.3753 67.8056 26.3272 67.8434 26.1945C67.8739 26.085 67.8047 25.9233 67.6804 25.9067Z" fill="#F73E20"/>
<path d="M64.0228 19.4101C61.7662 19.8547 59.7566 18.3262 58.0354 17.083C56.3487 15.8647 54.6126 14.546 53.6539 12.6394C53.14 11.6176 52.8716 10.4449 53.0634 9.30373C52.9111 9.283 52.7595 9.26226 52.6072 9.24153C52.6039 9.36427 52.6014 9.48785 52.5981 9.61059C52.5907 9.91164 53.0552 9.91164 53.0626 9.61059C53.0659 9.48785 53.0684 9.36427 53.0717 9.24153C53.0783 8.98443 52.6599 8.91477 52.6154 9.17933C52.2407 11.4061 53.3525 13.5284 54.8646 15.0785C55.6561 15.8904 56.5595 16.5829 57.4729 17.2489C58.4084 17.9314 59.344 18.643 60.376 19.1746C61.5372 19.7726 62.845 20.1176 64.1455 19.8605C64.4395 19.8032 64.3159 19.3521 64.0228 19.4101Z" fill="#F73E20"/>
<path d="M59.2435 13.3273C58.1037 13.4824 56.9358 13.5172 55.7935 13.3654C54.7369 13.2253 53.7576 12.8944 52.7998 12.4324C51.6361 11.8709 50.3818 11.2705 49.7534 10.0663C49.298 9.19382 49.2716 8.17621 49.3878 7.21749C49.424 6.91975 48.9595 6.92224 48.9233 7.21749C48.8113 8.14221 48.8409 9.10756 49.2025 9.97755C49.4874 10.6642 49.9602 11.229 50.5432 11.6802C51.0942 12.1073 51.7152 12.4241 52.3395 12.7268C52.7455 12.9234 53.149 13.1257 53.5699 13.2875C54.1291 13.5031 54.7097 13.6574 55.2994 13.7594C56.6476 13.9932 58.0172 13.9625 59.3687 13.7784C59.4938 13.761 59.5597 13.601 59.5309 13.4907C59.4938 13.3555 59.3678 13.3107 59.2435 13.3273Z" fill="#F73E20"/>
<path d="M54.6646 9.85441C53.4705 10.2633 52.1857 10.2144 50.9791 9.88593C50.4282 9.73582 49.9176 9.52931 49.4399 9.21167C48.9622 8.89403 48.5348 8.50258 48.1436 8.08293C47.7071 7.61435 47.3175 7.10431 46.9749 6.56192C46.8151 6.30897 46.4124 6.54284 46.5738 6.79828C47.2187 7.81837 48.0258 8.763 49.0026 9.47375C50.0238 10.2168 51.311 10.5527 52.5588 10.6108C53.3123 10.6456 54.0733 10.5511 54.789 10.3064C55.0698 10.2094 54.9488 9.75738 54.6646 9.85441Z" fill="#F73E20"/>
<path d="M50.1424 7.94906C49.0594 8.54702 47.6972 8.62664 46.5681 8.10415C45.5583 7.63723 44.7644 6.75149 44.4152 5.6891C44.3213 5.40463 43.8733 5.52654 43.9672 5.8135C44.6145 7.78153 46.554 9.10019 48.6155 8.897C49.2356 8.83646 49.8302 8.654 50.3763 8.35212C50.639 8.20782 50.4051 7.80393 50.1424 7.94906Z" fill="#F73E20"/>
<path d="M46.7113 6.45362C45.0691 7.08558 43.1774 6.56558 42.129 5.12998C42.0705 5.04954 41.97 4.98651 41.8671 5.02217C41.2996 5.21872 40.6836 5.31161 40.0881 5.35805C39.1567 5.43103 38.1939 5.38459 37.3778 4.88035C37.2221 4.78415 37.1225 4.72029 37.0022 4.59174C36.7963 4.37196 36.4685 4.7037 36.6736 4.92265C37.0327 5.30663 37.5812 5.5488 38.0745 5.68896C39.099 5.98006 40.2471 5.87142 41.2774 5.65828C41.517 5.60851 41.7584 5.55378 41.9898 5.47333C41.9025 5.43767 41.8152 5.40201 41.7279 5.36552C42.8932 6.96118 44.9843 7.61636 46.8349 6.90395C47.1116 6.79779 46.9913 6.3458 46.7113 6.45362Z" fill="#F73E20"/>
<path d="M49.5649 31.8344C49.6933 30.4445 49.3985 29.0412 48.8928 27.7508C48.3946 26.4794 47.7044 25.2793 46.8586 24.2103C46.007 23.1346 44.9487 22.1908 43.6952 21.6211C42.4582 21.0588 41.0573 20.8456 39.7306 21.1923C38.4466 21.5273 37.1923 22.3492 36.596 23.5733C36.4651 23.8429 36.8653 24.0801 36.9971 23.8097C37.497 22.7846 38.4903 22.0789 39.551 21.7322C40.765 21.3358 42.0621 21.4577 43.2373 21.9296C45.6306 22.8908 47.3223 25.2461 48.3139 27.5559C48.8895 28.8969 49.2354 30.3682 49.0995 31.8344C49.0732 32.1338 49.5377 32.1322 49.5649 31.8344Z" fill="#F73E20"/>
<path d="M53.569 46.3283C52.7883 44.1687 52.0075 42.0091 51.226 39.8494C51.1247 39.5691 50.6758 39.6902 50.7779 39.9738C51.5587 42.1335 52.3394 44.2931 53.121 46.4527C53.2231 46.733 53.672 46.6119 53.569 46.3283Z" fill="#F73E20"/>
<path d="M54.6465 43.1914C53.869 40.9911 53.22 38.7469 52.4426 36.5467C52.3429 36.2647 51.8941 36.3866 51.9945 36.6711C52.772 38.8713 53.421 41.1155 54.1984 43.3158C54.2981 43.5969 54.7469 43.4759 54.6465 43.1914Z" fill="#F73E20"/>
<path d="M55.9673 39.0494C55.0754 37.2431 54.0888 35.4857 53.0099 33.7864C52.8493 33.5334 52.4474 33.7681 52.6088 34.0227C53.6869 35.7229 54.6743 37.4794 55.5663 39.2858C55.6997 39.5545 56.0999 39.3181 55.9673 39.0494Z" fill="#F73E20"/>
<path d="M56.4468 34.5806C55.5343 32.7652 54.5625 30.9713 53.1558 29.4884C52.9491 29.2703 52.6205 29.6012 52.8272 29.8193C54.2059 31.2723 55.1513 33.0372 56.0449 34.817C56.1808 35.0848 56.5819 34.8485 56.4468 34.5806Z" fill="#F73E20"/>
<path d="M55.6059 28.5637C54.6835 27.3362 53.5535 26.2871 52.258 25.4694C52.0044 25.3093 51.7705 25.714 52.0233 25.8733C53.248 26.6454 54.3326 27.639 55.2048 28.8C55.2814 28.9012 55.4041 28.9518 55.5227 28.8838C55.6215 28.8266 55.6816 28.664 55.6059 28.5637Z" fill="#F73E20"/>
<path d="M53.4521 22.8998C52.4185 22.1169 51.2985 21.4576 50.1133 20.9359C49.8424 20.8165 49.6052 21.2196 49.8786 21.3398C51.0637 21.8623 52.1838 22.5208 53.2174 23.3037C53.3187 23.38 53.476 23.3195 53.5353 23.2199C53.6061 23.1014 53.5518 22.9761 53.4521 22.8998Z" fill="#F73E20"/>
<path d="M51.5366 19.1488C50.3506 18.4828 49.0395 18.0872 47.6864 17.9794C47.3882 17.9554 47.3899 18.4239 47.6864 18.4472C48.9555 18.5483 50.1908 18.9282 51.3019 19.5527C51.5637 19.6995 51.7985 19.2956 51.5366 19.1488Z" fill="#F73E20"/>
<path d="M48.7529 15.8485C47.38 15.5218 45.9511 15.545 44.551 15.6171C44.2537 15.6321 44.252 16.0998 44.551 16.0849C45.9082 16.0161 47.2976 15.9829 48.6293 16.2997C48.9201 16.3685 49.0436 15.9174 48.7529 15.8485Z" fill="#F73E20"/>
<path d="M45.0543 12.768C42.4938 13.1138 40.0676 14.1613 37.9905 15.7014C37.4074 16.1334 36.8515 16.6012 36.3253 17.1021C36.1078 17.3095 36.4365 17.6395 36.6539 17.433C38.4517 15.7229 40.621 14.3927 42.9979 13.6836C43.6707 13.4829 44.3592 13.3303 45.0543 13.2365C45.1795 13.22 45.2849 13.1412 45.2866 13.0027C45.2874 12.8891 45.1779 12.7514 45.0543 12.768Z" fill="#F73E20"/>
<path d="M42.3686 10.6265C40.2816 11.2303 38.3454 12.2023 36.6777 13.6097C36.4479 13.8029 36.7782 14.1322 37.0063 13.9406C38.6114 12.5863 40.4859 11.6582 42.4921 11.0777C42.7787 10.9947 42.6568 10.5428 42.3686 10.6265Z" fill="#F73E20"/>
<path d="M38.8372 8.67175C37.9164 9.1254 37.0648 9.71175 36.3055 10.4042C36.084 10.6066 36.4126 10.9367 36.6341 10.7352C37.3646 10.0684 38.1857 9.51187 39.0719 9.07564C39.1847 9.02007 39.2152 8.85918 39.1551 8.75551C39.0875 8.6394 38.9508 8.61535 38.8372 8.67175Z" fill="#F73E20"/>
<path d="M39.1625 18.0111C38.0836 18.6156 37.2304 19.5893 36.4241 20.5115C36.2273 20.7363 36.5542 21.0689 36.7527 20.8424C37.5326 19.9509 38.3529 19.0005 39.3972 18.4149C39.6583 18.269 39.4244 17.8643 39.1625 18.0111Z" fill="#F73E20"/>
<path d="M54.434 42.8102C52.2943 44.0161 49.9513 44.7799 47.4781 44.6439C47.1791 44.6273 47.1799 45.095 47.4781 45.1116C50.0303 45.2526 52.4615 44.4581 54.6687 43.2141C54.9289 43.0673 54.695 42.6626 54.434 42.8102Z" fill="#F73E20"/>
<path d="M55.8644 39.1313C54.237 40.2152 52.3263 40.8115 50.3744 40.8364C50.0755 40.8397 50.0746 41.3075 50.3744 41.3042C52.4037 41.2793 54.4058 40.6631 56.0991 39.5352C56.347 39.3693 56.1147 38.9646 55.8644 39.1313Z" fill="#F73E20"/>
<path d="M55.9485 34.8904C54.7987 36.2713 53.4209 37.4133 51.6955 37.9673C51.4114 38.0585 51.5333 38.5097 51.819 38.4184C53.6202 37.8404 55.0746 36.6652 56.2771 35.2213C56.4673 34.9924 56.1403 34.6599 55.9485 34.8904Z" fill="#F73E20"/>
<path d="M55.1283 28.7353C54.9759 30.7481 54.0955 32.6738 52.6856 34.107C52.4747 34.3209 52.8033 34.6518 53.0142 34.4379C54.5139 32.9135 55.4314 30.8742 55.5936 28.7353C55.6158 28.4351 55.1513 28.4367 55.1283 28.7353Z" fill="#F73E20"/>
<path d="M53.0792 22.8318C54.0898 24.9549 53.9613 27.5507 52.7679 29.5702C52.6147 29.8298 53.0158 30.0653 53.169 29.8065C54.4513 27.6353 54.5625 24.8703 53.4803 22.5954C53.351 22.3242 52.9499 22.5614 53.0792 22.8318Z" fill="#F73E20"/>
<path d="M50.5984 19.1764C51.1214 20.821 51.3413 22.5427 51.2482 24.2669C51.403 24.2669 51.5579 24.2669 51.7127 24.2669C51.7078 24.1865 51.702 24.1052 51.6971 24.0247C51.6773 23.7262 51.2128 23.7237 51.2326 24.0247C51.2375 24.1052 51.2433 24.1865 51.2482 24.2669C51.268 24.5671 51.6962 24.5688 51.7127 24.2669C51.8074 22.5054 51.5809 20.7322 51.0464 19.052C50.955 18.7667 50.507 18.8886 50.5984 19.1764Z" fill="#F73E20"/>
<path d="M47.7672 15.2523C48.5965 16.4731 49.0585 17.9436 48.7069 19.4148C48.6369 19.7076 49.0849 19.832 49.1549 19.5392C49.5346 17.9494 49.0684 16.3413 48.1683 15.0168C48.0003 14.7688 47.5975 15.0027 47.7672 15.2523Z" fill="#F73E20"/>
<path d="M44.8896 13.1683C45.77 14.1959 46.3474 15.483 46.1917 16.8614C46.1579 17.16 46.6233 17.1575 46.6562 16.8614C46.825 15.3619 46.1728 13.9521 45.2182 12.8374C45.0222 12.6093 44.6953 12.9411 44.8896 13.1683Z" fill="#F73E20"/>
<path d="M41.876 11.0935C43.1212 12.3591 43.9152 14.0476 44.0815 15.8232C44.1087 16.1177 44.5542 16.1293 44.546 15.8232C44.5444 15.7569 44.5427 15.6914 44.5402 15.625C44.532 15.3248 44.0675 15.3232 44.0757 15.625C44.0774 15.6914 44.079 15.7569 44.0815 15.8232C44.2363 15.8232 44.3912 15.8232 44.546 15.8232C44.3681 13.9216 43.5413 12.1211 42.2046 10.7626C41.9938 10.5486 41.6651 10.8795 41.876 11.0935Z" fill="#F73E20"/>
<path d="M38.3601 9.18529C40.125 10.9742 41.2855 13.308 41.6635 15.8001C41.7088 16.0971 42.156 15.971 42.1115 15.6757C41.7228 13.1089 40.5055 10.6955 38.6887 8.85438C38.4779 8.64041 38.1493 8.97132 38.3601 9.18529Z" fill="#F73E20"/>
<path d="M36.3079 10.7666C37.269 11.4525 38.1024 12.3308 38.7984 13.2854C39.4951 14.2399 40.0807 15.2915 40.4496 16.4195C40.5427 16.7039 40.9915 16.582 40.8977 16.2951C40.5089 15.1083 39.8995 13.9978 39.1607 12.9967C38.422 11.9949 37.5556 11.0868 36.5426 10.3636C36.298 10.1878 36.0657 10.5933 36.3079 10.7666Z" fill="#F73E20"/>
<path d="M36.3936 13.5638C37.8398 14.7075 38.6206 16.3819 39.0562 18.1451C39.1287 18.437 39.5767 18.3134 39.5043 18.0207C39.0513 16.1895 38.2252 14.4222 36.7222 13.2329C36.4892 13.0488 36.1581 13.378 36.3936 13.5638Z" fill="#F73E20"/>
<path d="M36.3244 17.4332C37.3736 18.7079 38.1898 20.1493 38.6279 21.7507C38.707 22.0402 39.1558 21.9174 39.076 21.6263C38.6156 19.9444 37.7541 18.44 36.653 17.1023C36.4619 16.87 36.135 17.2026 36.3244 17.4332Z" fill="#F73E20"/>
<path d="M36.9733 3.9873H36.1909V46.4746H36.9733V3.9873Z" fill="#F73E20"/>
<path d="M71.4152 45.585H36.1909V46.7751H71.4152V45.585Z" fill="#F73E20"/>
<path d="M0.740479 16.5576H11.1348C11.1348 16.5576 8.6888 18.6501 7.69062 20.3311C6.69245 22.013 7.12648 21.2542 7.12648 21.2542H1.36969L0.740479 16.5576Z" fill="#F73E20"/>
<path d="M2.54573 11.0254H0.193604V47.9992H2.54573V11.0254Z" fill="#F73E20"/>
<path d="M1.3696 6.52734L2.73839 10.1333L1.3696 11.5125L0 10.1333L1.3696 6.52734Z" fill="#F73E20"/>
<path d="M72.2588 16.5576H61.8645C61.8645 16.5576 64.3105 18.6501 65.3087 20.3311C66.3069 22.013 65.8728 21.2542 65.8728 21.2542H71.6305L72.2588 16.5576Z" fill="#F73E20"/>
<path d="M72.8065 11.0254H70.4543V47.9992H72.8065V11.0254Z" fill="#F73E20"/>
<path d="M71.6303 6.52734L70.2607 10.1333L71.6303 11.5125L73 10.1333L71.6303 6.52734Z" fill="#F73E20"/>
<path d="M36.5536 0L37.9232 3.60599L36.5536 4.98519L35.1848 3.60599L36.5536 0Z" fill="#F73E20"/>
</g>
<defs>
<clipPath id="clip0_491_2822">
<rect width="73" height="48" fill="white"/>
</clipPath>
</defs>
</svg>
