<svg width="66" height="18" viewBox="0 0 66 18" fill="none" xmlns="http://www.w3.org/2000/svg">
<g clip-path="url(#clip0_491_3028)">
<path d="M6.01096 16.4703H4.61048C4.14727 16.4703 3.76367 16.1094 3.76367 15.666V2.33357C3.76367 1.89363 4.14365 1.5293 4.61048 1.5293H6.01096C6.47417 1.5293 6.85776 1.89019 6.85776 2.33357V15.666C6.85414 16.106 6.47417 16.4703 6.01096 16.4703Z" fill="#F73E20"/>
<path d="M2.26176 14.7248H0.828709C0.372738 14.7248 0 14.3708 0 13.9377V4.06639C0 3.63332 0.372738 3.2793 0.828709 3.2793H2.26176C2.71773 3.2793 3.09047 3.63332 3.09047 4.06639V13.9377C3.09047 14.3708 2.71773 14.7248 2.26176 14.7248Z" fill="#F73E20"/>
<path d="M9.75991 18H8.38476C7.91431 18 7.5271 17.6322 7.5271 17.1854V0.814588C7.5271 0.367768 7.91431 0 8.38476 0H9.75991C10.2304 0 10.6176 0.367768 10.6176 0.814588V17.1854C10.6176 17.6357 10.234 18 9.75991 18Z" fill="#F73E20"/>
<path d="M25.5996 7.9502H9.02539V10.0571H25.5996V7.9502Z" fill="#F73E20"/>
<path d="M59.9891 16.4703H61.3896C61.8528 16.4703 62.2364 16.1094 62.2364 15.666V2.33357C62.2364 1.89363 61.8564 1.5293 61.3896 1.5293H59.9891C59.5259 1.5293 59.1423 1.89019 59.1423 2.33357V15.666C59.1423 16.106 59.5259 16.4703 59.9891 16.4703Z" fill="#F73E20"/>
<path d="M63.7382 14.7248H65.1712C65.6272 14.7248 65.9999 14.3708 65.9999 13.9377V4.06639C65.9999 3.63332 65.6272 3.2793 65.1712 3.2793H63.7382C63.2822 3.2793 62.9094 3.63332 62.9094 4.06639V13.9377C62.9058 14.3708 63.2822 14.7248 63.7382 14.7248Z" fill="#F73E20"/>
<path d="M56.2363 18H57.6115C58.0819 18 58.4691 17.6322 58.4691 17.1854V0.814588C58.4691 0.367768 58.0819 0 57.6115 0H56.2363C55.7659 0 55.3787 0.367768 55.3787 0.814588V17.1854C55.3787 17.6357 55.7659 18 56.2363 18Z" fill="#F73E20"/>
<path d="M56.6744 7.9502H25.5996V10.0571H56.6744V7.9502Z" fill="#F73E20"/>
</g>
<defs>
<clipPath id="clip0_491_3028">
<rect width="66" height="18" fill="white"/>
</clipPath>
</defs>
</svg>
