<svg width="54" height="48" viewBox="0 0 54 48" fill="none" xmlns="http://www.w3.org/2000/svg">
<g clip-path="url(#clip0_491_2797)">
<path d="M4.83594 35.6902H15.8005L16.0306 34.9043H5.06475L4.83594 35.6902Z" fill="#F73E20"/>
<path d="M6.32178 30.5759H17.295L17.525 29.79H6.55059L6.32178 30.5759Z" fill="#F73E20"/>
<path d="M38.9956 8.34694C39.5258 8.81944 39.9244 9.41827 40.1544 10.0863C40.1557 10.09 40.1569 10.0936 40.1581 10.0973L40.4509 10.9925L40.9897 6.98044C41.4314 3.64982 39.0559 0.597363 35.6827 0.161297C32.6196 -0.234684 29.7323 1.67113 28.9327 4.61913L27.4294 10.1908H29.0619L30.1973 5.32849C30.1998 5.31999 30.201 5.31149 30.2047 5.30298C30.9084 2.8858 33.4622 1.48771 35.9115 2.1825C38.2993 2.85907 39.7153 5.28112 39.1149 7.66187L38.9956 8.34694Z" fill="#F73E20"/>
<path d="M7.80908 25.4607H18.7897L19.0197 24.6748H8.03667L7.80908 25.4607Z" fill="#F73E20"/>
<path d="M17.3 2.01696C18.604 2.07769 19.8083 2.72025 20.5735 3.76486C21.3952 4.89693 21.6597 6.33267 21.2956 7.67731L20.9241 9.25152C21.1074 9.49688 21.2661 9.75925 21.4002 10.0338C21.4088 10.0508 21.4162 10.0678 21.4223 10.086L21.4604 10.1929H22.3966L23.0314 7.8668C23.9368 4.53375 21.9341 1.10839 18.5584 0.214392C18.2103 0.122078 17.8548 0.0601298 17.4956 0.0273338C14.521 -0.244752 11.8552 1.61247 11.0125 4.54468L0.0257776 43.3569C-0.0800179 43.7371 0.146335 44.1307 0.531382 44.2351C0.58551 44.2497 0.640868 44.2582 0.697456 44.2606C1.03084 44.274 1.32977 44.0602 1.42326 43.7432L12.5933 5.30385C13.1826 3.24985 15.1422 1.88092 17.3 2.01696Z" fill="#F73E20"/>
<path d="M38.9868 47.4357C39.2709 46.9146 39.0729 46.2647 38.5451 45.9841L32.7645 42.8685C32.1888 42.5588 31.7496 42.0498 31.5319 41.4401L20.4602 10.4527C19.7713 9.0789 18.3542 8.20677 16.8005 8.20312H12.8257L12.2476 10.1928H15.5592C17.0846 10.1952 18.471 11.0685 19.1169 12.4338C19.1255 12.4508 19.1329 12.469 19.139 12.4873L29.3458 42.8612C29.5513 43.4771 29.9929 43.9884 30.5748 44.2885L37.5179 47.8729C38.0444 48.1523 38.7026 47.9567 38.9868 47.4357Z" fill="#F73E20"/>
<path d="M15.2642 44.3861C15.3454 44.4091 15.429 44.4213 15.5139 44.4201C15.9137 44.4189 16.2643 44.1589 16.3763 43.7799L22.0253 24.3137L21.0485 21.4082L14.6528 43.2916C14.515 43.7617 14.7893 44.2512 15.2642 44.3861Z" fill="#F73E20"/>
<path d="M45.657 39.6089C44.914 39.0574 44.3715 38.2837 44.1107 37.403L36.8858 12.7987C36.5229 11.7444 35.6482 11.21 34.2889 11.21H21.8247L32.5039 41.0993C32.6368 41.4722 32.9062 41.7831 33.258 41.9726L38.8775 45.0008L50.4313 42.8666L45.6718 39.6186C45.6668 39.6162 45.6619 39.6125 45.657 39.6089Z" fill="#F73E20"/>
<path d="M3.34985 40.8054H14.3058L14.5347 40.0195H3.57867L3.34985 40.8054Z" fill="#F73E20"/>
<path d="M53.7096 42.5544C54.145 42.0527 54.086 41.2972 53.5779 40.8672C53.5533 40.8466 53.5263 40.8259 53.5004 40.8065L48.5034 37.5427C48.4985 37.539 48.4936 37.5354 48.4887 37.533C48.1208 37.2718 47.8465 36.9025 47.7063 36.4774L39.1787 10.4167C38.6706 8.98828 37.3752 8.20117 35.5312 8.20117H30.5859L30.1208 10.1908H34.2887C36.0934 10.1908 37.3642 11.0046 37.8673 12.4829C37.8698 12.4902 37.8722 12.4962 37.8734 12.5035L45.1008 37.1188C45.2976 37.7844 45.706 38.3686 46.267 38.7865L52.0365 42.7232L52.0525 42.7342C52.5667 43.1143 53.2901 43.0354 53.7096 42.5544Z" fill="#F73E20"/>
<path d="M9.29517 20.3455H20.2856L20.4738 19.7005L20.4271 19.5596H9.52398L9.29517 20.3455Z" fill="#F73E20"/>
<path d="M11.0101 14.4443L10.7812 15.2302H18.9718L18.7073 14.4443H11.0101Z" fill="#F73E20"/>
</g>
<defs>
<clipPath id="clip0_491_2797">
<rect width="54" height="48" fill="white"/>
</clipPath>
</defs>
</svg>
