<svg width="50" height="48" viewBox="0 0 50 48" fill="none" xmlns="http://www.w3.org/2000/svg">
<path d="M31.1648 12.7448C30.7344 12.4524 30.1488 12.5665 29.8595 13.0051C29.5702 13.4402 29.6831 14.0322 30.1171 14.3246C31.9162 15.5442 33.2392 17.3701 33.8424 19.4562C33.9624 19.8699 34.3363 20.1409 34.7456 20.1409C34.8338 20.1409 34.922 20.1302 35.0102 20.1017C35.5076 19.9555 35.7933 19.4277 35.6487 18.9249C34.922 16.4072 33.3309 14.214 31.1648 12.7448Z" fill="#F73E20"/>
<path d="M27.9122 11.2399C26.9668 10.9796 25.986 10.8477 24.9982 10.8477C24.4796 10.8477 24.0598 11.272 24.0598 11.7962C24.0598 12.3205 24.4796 12.7448 24.9982 12.7448C25.8202 12.7448 26.6351 12.8554 27.4183 13.0694C27.503 13.0907 27.5841 13.1014 27.6653 13.1014C28.078 13.1014 28.459 12.8233 28.5719 12.4025C28.7095 11.9032 28.4132 11.379 27.9122 11.2399Z" fill="#F73E20"/>
<path d="M0.938404 21.0146C0.419812 21.0146 0 21.439 0 21.9632C0 22.4875 0.419812 22.9118 0.938404 22.9118H6.85811C7.3767 22.9118 7.79651 22.4875 7.79651 21.9632C7.79651 21.439 7.3767 21.0146 6.85811 21.0146H0.938404Z" fill="#F73E20"/>
<path d="M42.2 22.1566C42.2 22.6808 42.6198 23.1052 43.1384 23.1052H49.0581C49.5767 23.1052 49.9965 22.6808 49.9965 22.1566C49.9965 21.6324 49.5767 21.208 49.0581 21.208H43.1384C42.6198 21.2045 42.2 21.6288 42.2 22.1566Z" fill="#F73E20"/>
<path d="M36.2978 0.570758L33.3379 5.75233C33.0769 6.20523 33.2321 6.78651 33.6837 7.0504C33.8318 7.13599 33.9941 7.17878 34.1529 7.17878C34.4774 7.17878 34.7949 7.00761 34.9678 6.70449L37.9277 1.51935C38.1852 1.06645 38.0335 0.485171 37.5819 0.221278C37.1304 -0.0390491 36.5553 0.114294 36.2978 0.570758Z" fill="#F73E20"/>
<path d="M12.5802 0.128264C12.1321 0.38859 11.9769 0.969868 12.238 1.42633L15.1978 6.60791C15.3707 6.91103 15.6882 7.0822 16.0128 7.0822C16.1715 7.0822 16.3338 7.04297 16.482 6.95382C16.93 6.68993 17.0852 6.10865 16.8242 5.65575L13.8643 0.474177C13.6068 0.0212799 13.0317 -0.13563 12.5802 0.128264Z" fill="#F73E20"/>
<path d="M43.23 11.4186C42.969 10.9657 42.3975 10.8088 41.9459 11.0691L39.6669 12.3993C39.2189 12.6632 39.0637 13.2445 39.3212 13.6974C39.4941 14.0005 39.8116 14.1717 40.1361 14.1717C40.2949 14.1717 40.4572 14.1324 40.6053 14.0433L42.8843 12.7131C43.3359 12.4564 43.4911 11.8751 43.23 11.4186Z" fill="#F73E20"/>
<path d="M24.0598 1.72984V4.39017C24.0598 4.91439 24.4796 5.33875 24.9982 5.33875C25.5168 5.33875 25.9366 4.91439 25.9366 4.39017V1.72984C25.9366 1.20562 25.5168 0.78125 24.9982 0.78125C24.4796 0.78125 24.0598 1.20562 24.0598 1.72984Z" fill="#F73E20"/>
<path d="M9.8602 14.175C10.1848 14.175 10.5023 14.0038 10.6751 13.7007C10.9362 13.2478 10.781 12.6665 10.3294 12.4026L8.05042 11.0725C7.60239 10.8086 7.02735 10.9655 6.76629 11.422C6.50523 11.8748 6.66046 12.4561 7.10849 12.72L9.38747 14.0502C9.53917 14.1322 9.70145 14.175 9.8602 14.175Z" fill="#F73E20"/>
<path d="M49.0581 27.6548C48.5395 27.6548 48.1197 28.0792 48.1197 28.607C48.1197 29.2311 47.0507 29.93 45.622 29.93C44.2637 29.93 43.47 28.8209 43.4418 28.7817L42.4787 27.3624C42.4363 27.2982 41.5791 26.0608 40.0162 25.5793C40.2773 24.4311 40.4113 23.2542 40.4113 22.0667C40.4113 13.4759 33.4968 6.48633 24.9982 6.48633C16.4997 6.48633 9.58513 13.4759 9.58513 22.0667C9.58513 23.2542 9.71918 24.4346 9.98024 25.5793C8.41741 26.0608 7.56015 27.2982 7.51782 27.3624L6.55472 28.7817C6.54766 28.7924 5.73979 29.93 4.37452 29.93C2.94574 29.93 1.87681 29.2311 1.87681 28.607C1.87681 28.0828 1.457 27.6548 0.938404 27.6548C0.419812 27.6548 0 28.0792 0 28.607C0 30.415 1.92267 31.8272 4.37804 31.8272C6.74522 31.8272 8.05405 29.9336 8.11049 29.8516L9.07359 28.4322C9.08065 28.4215 9.88852 27.284 11.2538 27.284C12.612 27.284 13.4058 28.393 13.434 28.4322L14.3971 29.8516C14.4535 29.9336 15.7624 31.8272 18.1295 31.8272C20.4967 31.8272 21.8055 29.9336 21.862 29.8516L22.8251 28.4322C22.8321 28.4215 23.64 27.284 25.0053 27.284C26.3635 27.284 27.1573 28.393 27.1855 28.4322L28.1486 29.8516C28.205 29.9336 29.5139 31.8272 31.881 31.8272C34.2482 31.8272 35.557 29.9336 35.6135 29.8516L36.5766 28.4322C36.5836 28.4215 37.3915 27.284 38.7568 27.284C40.115 27.284 40.9088 28.393 40.937 28.4322L41.9001 29.8516C41.953 29.9336 43.2654 31.8272 45.6325 31.8272C48.0879 31.8272 50.0106 30.4114 50.0106 28.607C50 28.0792 49.5802 27.6548 49.0581 27.6548ZM38.1183 25.4296C36.1497 25.7184 35.0667 27.2875 35.0173 27.3588L34.0542 28.7782C34.0471 28.7889 33.2393 29.9264 31.874 29.9264C30.5158 29.9264 29.722 28.8174 29.6938 28.7782L28.7307 27.3588C28.6778 27.2768 27.3654 25.3832 24.9982 25.3832C22.6311 25.3832 21.3222 27.2768 21.2658 27.3588L20.3027 28.7817C20.2956 28.7924 19.4878 29.93 18.1225 29.93C16.7643 29.93 15.9705 28.8209 15.9423 28.7817L14.9792 27.3624C14.9298 27.2875 13.8468 25.722 11.8747 25.4331C11.5995 24.3383 11.4619 23.2079 11.4619 22.0631C11.4619 14.5208 17.5333 8.3835 24.9947 8.3835C32.4561 8.3835 38.5275 14.5208 38.5275 22.0631C38.5345 23.2007 38.3934 24.3312 38.1183 25.4296Z" fill="#F73E20"/>
<path d="M49.058 35.7394C48.5395 35.7394 48.1196 36.1638 48.1196 36.688C48.1196 37.3121 47.0507 38.011 45.6219 38.011C44.2637 38.011 43.47 36.902 43.4417 36.8627L42.4786 35.4434C42.4257 35.365 41.1134 33.4678 38.7462 33.4678C36.379 33.4678 35.0702 35.3614 35.0137 35.4434L34.0506 36.8627C34.0436 36.8734 33.2357 38.011 31.8704 38.011C30.5122 38.011 29.7185 36.902 29.6902 36.8627L28.7271 35.4434C28.6742 35.365 27.3619 33.4678 24.9947 33.4678C22.6275 33.4678 21.3187 35.3614 21.2622 35.4434L20.2991 36.8627C20.2921 36.8734 19.4842 38.011 18.1189 38.011C16.7607 38.011 15.967 36.902 15.9387 36.8627L14.9756 35.4434C14.9192 35.365 13.6104 33.4678 11.2432 33.4678C8.87601 33.4678 7.56718 35.3614 7.51074 35.4434L6.54764 36.8627C6.54058 36.8734 5.73271 38.011 4.36743 38.011C2.93866 38.011 1.86973 37.3121 1.86973 36.688C1.86973 36.1638 1.44992 35.7394 0.931324 35.7394C0.412732 35.7394 -0.00708008 36.1638 -0.00708008 36.688C-0.00708008 38.496 1.91559 39.9118 4.37096 39.9118C6.73814 39.9118 8.04697 38.0181 8.10341 37.9361L9.06651 36.5168C9.07357 36.5061 9.88144 35.3685 11.2467 35.3685C12.6049 35.3685 13.3987 36.4776 13.4269 36.5168L14.39 37.9361C14.4465 38.0181 15.7553 39.9118 18.1225 39.9118C20.4896 39.9118 21.7985 38.0181 21.8549 37.9361L22.818 36.5168C22.8251 36.5061 23.6329 35.3685 24.9982 35.3685C26.3564 35.3685 27.1502 36.4776 27.1784 36.5168L28.1415 37.9361C28.198 38.0181 29.5068 39.9118 31.874 39.9118C34.2411 39.9118 35.55 38.0181 35.6064 37.9361L36.5695 36.5168C36.5766 36.5061 37.3844 35.3685 38.7497 35.3685C40.1079 35.3685 40.9017 36.4776 40.9299 36.5168L41.893 37.9361C41.9459 38.0181 43.2583 39.9118 45.6255 39.9118C48.0808 39.9118 50.0035 38.496 50.0035 36.688C50 36.1673 49.5802 35.7394 49.058 35.7394Z" fill="#F73E20"/>
<path d="M49.058 43.8273C48.5395 43.8273 48.1196 44.2517 48.1196 44.7759C48.1196 45.3999 47.0507 46.0989 45.6219 46.0989C44.2637 46.0989 43.47 44.9934 43.4417 44.9506L42.4786 43.5313C42.4257 43.4493 41.1134 41.5557 38.7462 41.5557C36.379 41.5557 35.0702 43.4493 35.0137 43.5313L34.0506 44.9506C34.0436 44.9613 33.2357 46.0989 31.8704 46.0989C30.5122 46.0989 29.7185 44.9934 29.6902 44.9506L28.7271 43.5313C28.6742 43.4493 27.3619 41.5557 24.9947 41.5557C22.6275 41.5557 21.3187 43.4493 21.2622 43.5313L20.2991 44.9506C20.2921 44.9613 19.4842 46.0989 18.1189 46.0989C16.7607 46.0989 15.967 44.9934 15.9387 44.9506L14.9756 43.5313C14.9192 43.4493 13.6104 41.5557 11.2432 41.5557C8.87601 41.5557 7.56718 43.4493 7.51074 43.5313L6.54764 44.9506C6.54058 44.9613 5.73271 46.0989 4.36743 46.0989C2.93866 46.0989 1.86973 45.3999 1.86973 44.7759C1.86973 44.2517 1.44992 43.8273 0.931324 43.8273C0.412732 43.8273 -0.00708008 44.2517 -0.00708008 44.7759C-0.00708008 46.5839 1.91559 47.9996 4.37096 47.9996C6.73814 47.9996 8.04697 46.106 8.10341 46.024L9.06651 44.6047C9.07357 44.594 9.88144 43.4564 11.2467 43.4564C12.6049 43.4564 13.3987 44.5619 13.4269 44.6047L14.39 46.024C14.4465 46.106 15.7553 47.9996 18.1225 47.9996C20.4896 47.9996 21.7985 46.106 21.8549 46.024L22.818 44.6047C22.8251 44.594 23.6329 43.4564 24.9982 43.4564C26.3564 43.4564 27.1502 44.5619 27.1784 44.6047L28.1415 46.024C28.198 46.106 29.5068 47.9996 31.874 47.9996C34.2411 47.9996 35.55 46.106 35.6064 46.024L36.5695 44.6047C36.5766 44.594 37.3844 43.4564 38.7497 43.4564C40.1079 43.4564 40.9017 44.5655 40.9299 44.6047L41.893 46.024C41.9459 46.106 43.2583 47.9996 45.6255 47.9996C48.0808 47.9996 50.0035 46.5839 50.0035 44.7759C50 44.2517 49.5802 43.8273 49.058 43.8273Z" fill="#F73E20"/>
</svg>
