<svg width="63" height="48" viewBox="0 0 63 48" fill="none" xmlns="http://www.w3.org/2000/svg">
<path d="M34.6537 28.7251C34.5339 26.7625 34.6366 24.7142 34.7392 22.7515C34.9872 17.8664 35.2181 13.2469 31.267 12.9727H31.19C27.2389 13.2469 27.4783 17.8664 27.7178 22.7515C27.8204 24.7142 27.9145 26.7711 27.8033 28.7251C11.9646 29.2394 0 33.276 0 38.3326C0 43.7491 13.7178 48.0001 31.2328 48.0001C48.7392 48.0001 62.4655 43.7491 62.4655 38.3326C62.4655 33.276 50.4924 29.2394 34.6537 28.7251ZM27.9145 33.8674C28.0941 33.4389 28.2395 32.9846 28.3592 32.5304C28.4704 32.1533 28.5559 31.7591 28.6243 31.3648C28.727 30.8677 28.7954 30.3621 28.8467 29.8564C28.8895 29.4708 28.9237 29.0937 28.9493 28.6994C29.069 26.6768 28.9664 24.6028 28.8638 22.683C28.6072 17.5236 28.5816 14.3439 31.2242 14.1211C33.8583 14.3439 33.8412 17.5321 33.5761 22.683C33.482 24.6028 33.3794 26.6768 33.4991 28.6994C33.5248 29.0851 33.5504 29.4708 33.6017 29.8564C33.653 30.3621 33.7215 30.8763 33.8155 31.3648C33.8925 31.7591 33.9866 32.1533 34.0807 32.5304C34.2089 32.9846 34.3543 33.4303 34.5339 33.8674C34.705 34.2874 34.8931 34.673 35.1069 35.0587C35.7997 36.2671 36.7661 37.3213 38.1002 38.1098C37.0397 38.6154 34.2175 39.3782 31.2157 39.3782C28.2138 39.3782 25.3916 38.6154 24.3226 38.1098C25.6567 37.3127 26.6231 36.2671 27.3158 35.0587C27.5553 34.673 27.752 34.2702 27.9145 33.8674ZM22.8601 38.2383C23.1766 39.5496 28.154 40.5438 31.2328 40.5438C34.3116 40.5438 39.289 39.5496 39.6054 38.2383C39.6653 37.9727 39.5883 37.587 39.1692 37.3641C38.066 36.7985 37.2193 36.0529 36.5779 35.1701C42.5901 35.7443 46.0966 37.2099 46.0966 38.3412C46.0966 39.7639 40.4521 41.7522 31.2413 41.7522C22.0306 41.7522 16.3775 39.7724 16.3775 38.3412C16.3775 37.2185 19.8925 35.7443 25.9047 35.1701C25.2633 36.0529 24.4081 36.8071 23.3134 37.3641C22.8687 37.5784 22.7917 37.9727 22.8601 38.2383ZM15.2144 38.3326C15.2144 41.3323 23.2706 42.9007 31.2328 42.9007C39.1863 42.9007 47.2426 41.3323 47.2426 38.3326C47.2426 35.9157 42.0257 34.4416 35.851 33.9445C35.6286 33.5074 35.449 33.0446 35.3036 32.5647C47.4307 33.0789 55.5639 35.83 55.5639 38.3326C55.5639 41.1009 45.5749 44.1862 31.2328 44.1862C16.8907 44.1862 6.90165 41.1009 6.90165 38.3326C6.90165 35.8386 15.0434 33.0789 27.1619 32.5647C27.0165 33.0446 26.8284 33.5074 26.6146 33.9445C20.4313 34.4331 15.2144 35.9243 15.2144 38.3326ZM31.2328 46.8431C13.2389 46.8431 1.15455 42.4379 1.15455 38.3326C1.15455 34.5016 11.6738 30.4049 27.7092 29.8821C27.6494 30.3964 27.5724 30.9106 27.4612 31.3991C16.3433 31.8362 5.7471 34.2359 5.7471 38.3326C5.7471 42.8921 18.8748 45.3432 31.2328 45.3432C43.5907 45.3432 56.7184 42.8921 56.7184 38.3326C56.7184 34.2359 46.1137 31.8448 35.0043 31.3991C34.8931 30.902 34.8162 30.3964 34.7563 29.8821C50.7917 30.4049 61.311 34.5016 61.311 38.3326C61.311 42.4464 49.2267 46.8431 31.2328 46.8431Z" fill="#F73E20"/>
<path d="M25.1266 12.8689C25.3832 12.9289 25.6483 12.9631 25.9134 12.9631C27.4956 12.9631 28.8554 11.8833 29.2146 10.3492C29.4284 9.4664 29.2744 8.54936 28.8041 7.77802C28.3251 7.00668 27.5811 6.45817 26.7002 6.25248C26.4437 6.19249 26.1785 6.1582 25.9134 6.1582C24.3312 6.1582 22.98 7.23808 22.6122 8.77219C22.3984 9.65495 22.5438 10.572 23.0228 11.3433C23.5017 12.1147 24.2457 12.6632 25.1266 12.8689ZM23.7326 9.03787C23.9721 8.01799 24.87 7.30664 25.9134 7.30664C26.0845 7.30664 26.2641 7.32378 26.4351 7.36664C27.0167 7.50376 27.5127 7.86372 27.8291 8.37795C28.1455 8.89218 28.2396 9.49211 28.1028 10.0749C27.8206 11.2662 26.5976 12.029 25.4003 11.7461C24.8187 11.609 24.3227 11.249 24.0063 10.7348C23.6898 10.2292 23.5958 9.62066 23.7326 9.03787Z" fill="#F73E20"/>
<path d="M31.233 7.29891C31.3955 7.34176 31.5666 7.3589 31.7291 7.3589C32.7297 7.3589 33.5934 6.67327 33.8244 5.69624C33.9612 5.13916 33.8671 4.55637 33.5678 4.06785C33.2685 3.57934 32.7895 3.23652 32.2336 3.09939C31.0876 2.82514 29.9074 3.56219 29.6423 4.70206C29.5055 5.25914 29.5995 5.84193 29.8989 6.33045C30.1982 6.81896 30.6686 7.16178 31.233 7.29891ZM30.7541 4.96775C30.8653 4.51351 31.2587 4.19641 31.7205 4.19641C31.7975 4.19641 31.8744 4.20498 31.9514 4.22212C32.208 4.28211 32.4303 4.44495 32.5672 4.66778C32.704 4.89918 32.7468 5.16487 32.6869 5.42198C32.5586 5.95335 32.0198 6.2876 31.481 6.16761C31.2245 6.10762 31.0021 5.94478 30.8653 5.72195C30.737 5.49912 30.6942 5.23343 30.7541 4.96775Z" fill="#F73E20"/>
<path d="M31.7118 9.75799C31.3868 11.1121 32.2335 12.4834 33.5848 12.8005C33.7729 12.8434 33.9696 12.8691 34.1663 12.8691C35.338 12.8691 36.3471 12.072 36.6208 10.9236C36.7748 10.2636 36.6721 9.58658 36.3129 9.01236C35.9623 8.43814 35.4064 8.03533 34.7479 7.88106C34.5512 7.83821 34.3545 7.8125 34.1578 7.8125C32.9861 7.8125 31.977 8.61812 31.7118 9.75799ZM32.8322 10.0237C32.9776 9.4066 33.5249 8.96951 34.1663 8.96951C34.269 8.96951 34.3801 8.97808 34.4828 9.00379C34.842 9.0895 35.1413 9.30376 35.3294 9.62086C35.5176 9.9294 35.5774 10.2979 35.4919 10.6579C35.3209 11.3864 34.5768 11.8492 33.8413 11.6778C33.1144 11.5064 32.6526 10.7607 32.8322 10.0237Z" fill="#F73E20"/>
<path d="M25.8707 3.65632C26.0076 3.6906 26.1529 3.70774 26.2983 3.70774C27.1621 3.70774 27.8976 3.12495 28.0943 2.28505C28.3338 1.29088 27.718 0.288132 26.7259 0.04816C25.7339 -0.183242 24.7247 0.442401 24.4938 1.428C24.2629 2.4136 24.8787 3.41635 25.8707 3.65632ZM25.6227 1.69369C25.6997 1.37658 25.9733 1.15375 26.2983 1.15375C26.3496 1.15375 26.4095 1.16232 26.4608 1.17089C26.8371 1.25659 27.068 1.64226 26.974 2.01079C26.8884 2.37932 26.5036 2.61929 26.1358 2.52502C25.7681 2.43932 25.5372 2.06222 25.6227 1.69369Z" fill="#F73E20"/>
<path d="M29.8642 19.9492H29.8727C30.1891 19.9406 30.4457 19.6835 30.4372 19.3578C30.4115 17.8408 30.6595 16.6581 31.1042 16.2039C31.3266 15.9725 31.3266 15.6125 31.0957 15.3897C30.8648 15.1669 30.5056 15.1669 30.2832 15.3983C29.4109 16.2896 29.257 18.0551 29.2826 19.3835C29.2912 19.6921 29.5477 19.9492 29.8642 19.9492Z" fill="#F73E20"/>
</svg>
