<svg width="49" height="49" viewBox="0 0 49 49" fill="none" xmlns="http://www.w3.org/2000/svg">
<g clip-path="url(#clip0_491_2752)">
<path d="M44.3977 33.1529C43.9885 33.1529 43.6565 32.8156 43.6565 32.4C43.6565 29.8552 41.505 29.5148 37.382 29.0892C33.7887 28.7188 29.7161 28.2981 26.8639 25.3597C24.2559 22.6723 19.5212 22.7305 15.7183 22.7787C13.0026 22.8118 11.0399 22.8369 10.1129 21.9053C9.78282 21.5751 9.60889 21.1414 9.60889 20.6525C9.60889 20.0451 9.85101 18.9469 11.4698 18.4078C12.2436 18.1498 13.0095 18.1377 13.0421 18.1367C13.4512 18.1357 13.7873 18.464 13.7932 18.8796C13.7981 19.2952 13.472 19.6355 13.0629 19.6426C13.0421 19.6426 11.0913 19.7199 11.0913 20.6525C11.0913 20.7619 11.1199 20.799 11.1545 20.8342C11.6417 21.3231 13.7981 21.297 15.7005 21.2729C19.5696 21.2247 24.8686 21.1594 27.9204 24.3026C30.397 26.8545 34.1879 27.246 37.5322 27.5914C39.4593 27.7902 41.2787 27.9779 42.6435 28.5712C44.2998 29.291 45.1389 30.579 45.1389 32.4C45.1389 32.8156 44.8068 33.1529 44.3977 33.1529Z" fill="#F73E20"/>
<path d="M10.3501 31.6931C9.94094 31.6931 9.60889 31.3558 9.60889 30.9402V20.6533C9.60889 20.2377 9.94094 19.9004 10.3501 19.9004C10.7592 19.9004 11.0913 20.2377 11.0913 20.6533V30.9402C11.0913 31.3558 10.7592 31.6931 10.3501 31.6931Z" fill="#F73E20"/>
<path d="M5.45628 40.6011C5.04714 40.6011 4.71509 40.2638 4.71509 39.8482V30.9858C4.71509 30.771 4.80502 30.5672 4.96215 30.4246C5.11929 30.2821 5.3288 30.2138 5.5393 30.2379C9.87678 30.7338 13.3327 30.1837 13.3673 30.1787C13.7715 30.1124 14.152 30.3915 14.2162 30.8021C14.2815 31.2127 14.0067 31.5992 13.6025 31.6644C13.4632 31.6875 10.3324 32.1855 6.19748 31.817V39.8472C6.19748 40.2648 5.86542 40.6011 5.45628 40.6011Z" fill="#F73E20"/>
<path d="M46.7369 48.8543C46.3277 48.8543 45.9957 48.517 45.9957 48.1014V33.6594C42.3786 32.6936 36.5123 34.7978 28.3245 38.4821C24.329 40.28 18.6761 41.2899 11.5211 41.4847C7.58587 41.5911 4.25543 41.4074 2.78391 41.304V48.1014C2.78391 48.517 2.45185 48.8543 2.04271 48.8543C1.63357 48.8543 1.30151 48.517 1.30151 48.1014V40.4908C1.30151 40.279 1.38947 40.0772 1.54265 39.9347C1.69682 39.7921 1.90238 39.7219 2.10991 39.7409C2.15142 39.745 6.28235 40.1214 11.4994 39.9789C18.354 39.7911 23.9643 38.7973 27.7247 37.1057C32.9298 34.7636 36.5153 33.3823 39.3506 32.6274C42.6188 31.757 45.0459 31.6837 46.9898 32.3985C47.2834 32.5059 47.479 32.789 47.479 33.1062V48.1014C47.478 48.517 47.146 48.8543 46.7369 48.8543Z" fill="#F73E20"/>
<path d="M33.7066 25.4302C33.2975 25.4302 32.9654 25.0929 32.9654 24.6773V9.10494C31.3032 8.86903 26.7048 8.26368 23.4336 8.26368C20.1823 8.26368 15.8468 8.862 14.2497 9.09992V21.7982C14.2497 22.2138 13.9177 22.5511 13.5085 22.5511C13.0994 22.5511 12.7673 22.2138 12.7673 21.7982V8.45241C12.7673 8.08298 13.0322 7.76776 13.3909 7.70853C13.6291 7.66937 19.278 6.75684 23.4336 6.75684C27.5853 6.75684 33.5653 7.66837 33.8183 7.70752C34.181 7.76274 34.4488 8.07997 34.4488 8.45241V24.6773C34.4478 25.0929 34.1158 25.4302 33.7066 25.4302Z" fill="#F73E20"/>
<path d="M45.6478 28.8743C45.2386 28.8743 44.9066 28.537 44.9066 28.1213V17.1709H40.2588V25.8435C40.2588 26.2591 39.9267 26.5964 39.5176 26.5964C39.1084 26.5964 38.7764 26.2591 38.7764 25.8435V16.418C38.7764 16.0023 39.1084 15.665 39.5176 15.665H45.6478C46.0569 15.665 46.3889 16.0023 46.3889 16.418V28.1203C46.3889 28.5369 46.0569 28.8743 45.6478 28.8743Z" fill="#F73E20"/>
<path d="M30.3781 8.59834C29.9689 8.59834 29.6369 8.26103 29.6369 7.84542V2.30494C28.4223 2.05296 25.5494 1.50584 23.4909 1.50584C21.4491 1.50584 18.7403 2.04493 17.5781 2.29791V7.84542C17.5781 8.26103 17.246 8.59834 16.8369 8.59834C16.4278 8.59834 16.0957 8.26103 16.0957 7.84542V1.69457C16.0957 1.34622 16.3309 1.04304 16.664 0.962733C16.826 0.923581 20.6575 0 23.4909 0C26.3193 0 30.3702 0.921573 30.5411 0.960725C30.8791 1.03802 31.1193 1.34321 31.1193 1.69557V7.84642C31.1193 8.26204 30.7872 8.59834 30.3781 8.59834Z" fill="#F73E20"/>
<path d="M27.5082 48.854C27.0991 48.854 26.767 48.5167 26.767 48.1011V45.0693H22.2339V48.1011C22.2339 48.5167 21.9018 48.854 21.4927 48.854C21.0835 48.854 20.7515 48.5167 20.7515 48.1011V44.3164C20.7515 43.9008 21.0835 43.5635 21.4927 43.5635H27.5082C27.9174 43.5635 28.2494 43.9008 28.2494 44.3164V48.1011C28.2494 48.5167 27.9174 48.854 27.5082 48.854Z" fill="#F73E20"/>
<path d="M48.2588 49H0.741196C0.332056 49 0 48.6627 0 48.2471C0 47.8314 0.332056 47.4941 0.741196 47.4941H48.2588C48.6679 47.4941 49 47.8314 49 48.2471C49 48.6627 48.6689 49 48.2588 49Z" fill="#F73E20"/>
<path d="M19.9609 7.94899C19.5518 7.94899 19.2197 7.61168 19.2197 7.19607V3.68847C19.2197 3.27286 19.5518 2.93555 19.9609 2.93555C20.3701 2.93555 20.7021 3.27286 20.7021 3.68847V7.19607C20.7021 7.61168 20.3701 7.94899 19.9609 7.94899Z" fill="#F73E20"/>
<path d="M23.583 7.94899C23.1739 7.94899 22.8418 7.61168 22.8418 7.19607V3.68847C22.8418 3.27286 23.1739 2.93555 23.583 2.93555C23.9921 2.93555 24.3242 3.27286 24.3242 3.68847V7.19607C24.3242 7.61168 23.9921 7.94899 23.583 7.94899Z" fill="#F73E20"/>
<path d="M27.2048 7.94899C26.7957 7.94899 26.4636 7.61168 26.4636 7.19607V3.68847C26.4636 3.27286 26.7957 2.93555 27.2048 2.93555C27.614 2.93555 27.946 3.27286 27.946 3.68847V7.19607C27.946 7.61168 27.614 7.94899 27.2048 7.94899Z" fill="#F73E20"/>
<path d="M19.9609 17.5853C19.5518 17.5853 19.2197 17.248 19.2197 16.8324V11.4394C19.2197 11.0238 19.5518 10.6865 19.9609 10.6865C20.3701 10.6865 20.7021 11.0238 20.7021 11.4394V16.8324C20.7021 17.249 20.3701 17.5853 19.9609 17.5853Z" fill="#F73E20"/>
<path d="M19.9609 20.5076C19.5518 20.5076 19.2197 20.1703 19.2197 19.7547V19.4023C19.2197 18.9867 19.5518 18.6494 19.9609 18.6494C20.3701 18.6494 20.7021 18.9867 20.7021 19.4023V19.7547C20.7021 20.1703 20.3701 20.5076 19.9609 20.5076Z" fill="#F73E20"/>
<path d="M16.6482 18.4603C16.239 18.4603 15.907 18.123 15.907 17.7073V12.2432C15.907 11.8275 16.239 11.4902 16.6482 11.4902C17.0573 11.4902 17.3894 11.8275 17.3894 12.2432V17.7073C17.3894 18.123 17.0573 18.4603 16.6482 18.4603Z" fill="#F73E20"/>
<path d="M30.6777 22.9355C30.2686 22.9355 29.9365 22.5982 29.9365 22.1826V15.3672C29.9365 14.9516 30.2686 14.6143 30.6777 14.6143C31.0869 14.6143 31.4189 14.9516 31.4189 15.3672V22.1826C31.4189 22.5982 31.0878 22.9355 30.6777 22.9355Z" fill="#F73E20"/>
<path d="M30.6777 13.4525C30.2686 13.4525 29.9365 13.1152 29.9365 12.6996V12.3975C29.9365 11.9818 30.2686 11.6445 30.6777 11.6445C31.0869 11.6445 31.4189 11.9818 31.4189 12.3975V12.6996C31.4189 13.1152 31.0878 13.4525 30.6777 13.4525Z" fill="#F73E20"/>
<path d="M23.583 23.362C23.1739 23.362 22.8418 23.0247 22.8418 22.6091V11.1396C22.8418 10.724 23.1739 10.3867 23.583 10.3867C23.9921 10.3867 24.3242 10.724 24.3242 11.1396V22.6091C24.3242 23.0247 23.9921 23.362 23.583 23.362Z" fill="#F73E20"/>
<path d="M27.2048 25.2279C26.7957 25.2279 26.4636 24.8906 26.4636 24.475V11.4404C26.4636 11.0248 26.7957 10.6875 27.2048 10.6875C27.614 10.6875 27.946 11.0248 27.946 11.4404V24.475C27.946 24.8916 27.614 25.2279 27.2048 25.2279Z" fill="#F73E20"/>
<path d="M19.9609 40.6477C19.5518 40.6477 19.2197 40.3104 19.2197 39.8948V26.0019C19.2197 25.5863 19.5518 25.249 19.9609 25.249C20.3701 25.249 20.7021 25.5863 20.7021 26.0019V39.8948C20.7021 40.3104 20.3701 40.6477 19.9609 40.6477Z" fill="#F73E20"/>
<path d="M16.6482 35.2823C16.239 35.2823 15.907 34.945 15.907 34.5294V25.7002C15.907 25.2846 16.239 24.9473 16.6482 24.9473C17.0573 24.9473 17.3894 25.2846 17.3894 25.7002V34.5294C17.3894 34.945 17.0573 35.2823 16.6482 35.2823Z" fill="#F73E20"/>
<path d="M16.6482 38.3685C16.239 38.3685 15.907 38.0312 15.907 37.6156V37.3857C15.907 36.9701 16.239 36.6328 16.6482 36.6328C17.0573 36.6328 17.3894 36.9701 17.3894 37.3857V37.6156C17.3894 38.0312 17.0573 38.3685 16.6482 38.3685Z" fill="#F73E20"/>
<path d="M13.4956 28.9568C13.0865 28.9568 12.7544 28.6195 12.7544 28.2039V25.7002C12.7544 25.2846 13.0865 24.9473 13.4956 24.9473C13.9047 24.9473 14.2368 25.2846 14.2368 25.7002V28.2039C14.2368 28.6195 13.9047 28.9568 13.4956 28.9568Z" fill="#F73E20"/>
<path d="M13.4956 38.4101C13.0865 38.4101 12.7544 38.0728 12.7544 37.6572V34.25C12.7544 33.8344 13.0865 33.4971 13.4956 33.4971C13.9047 33.4971 14.2368 33.8344 14.2368 34.25V37.6572C14.2368 38.0728 13.9047 38.4101 13.4956 38.4101Z" fill="#F73E20"/>
<path d="M9.96361 38.4101C9.55447 38.4101 9.22241 38.0728 9.22241 37.6572V34.25C9.22241 33.8344 9.55447 33.4971 9.96361 33.4971C10.3727 33.4971 10.7048 33.8344 10.7048 34.25V37.6572C10.7048 38.0728 10.3727 38.4101 9.96361 38.4101Z" fill="#F73E20"/>
<path d="M30.6777 37.3294C30.2686 37.3294 29.9365 36.9921 29.9365 36.5765V30.7891C29.9365 30.3734 30.2686 30.0361 30.6777 30.0361C31.0869 30.0361 31.4189 30.3734 31.4189 30.7891V36.5765C31.4189 36.9921 31.0878 37.3294 30.6777 37.3294Z" fill="#F73E20"/>
<path d="M34.5962 35.6928C34.187 35.6928 33.855 35.3555 33.855 34.9399V31.4072C33.855 30.9916 34.187 30.6543 34.5962 30.6543C35.0053 30.6543 35.3374 30.9916 35.3374 31.4072V34.9399C35.3374 35.3555 35.0053 35.6928 34.5962 35.6928Z" fill="#F73E20"/>
<path d="M23.583 37.0198C23.1739 37.0198 22.8418 36.6825 22.8418 36.2668V26.7158C22.8418 26.3002 23.1739 25.9629 23.583 25.9629C23.9921 25.9629 24.3242 26.3002 24.3242 26.7158V36.2668C24.3242 36.6825 23.9921 37.0198 23.583 37.0198Z" fill="#F73E20"/>
<path d="M27.2048 38.5861C26.7957 38.5861 26.4636 38.2487 26.4636 37.8331V29.3623C26.4636 28.9467 26.7957 28.6094 27.2048 28.6094C27.614 28.6094 27.946 28.9467 27.946 29.3623V37.8331C27.946 38.2487 27.614 38.5861 27.2048 38.5861Z" fill="#F73E20"/>
<path d="M30.7715 48.8472C30.3623 48.8472 30.0303 48.5099 30.0303 48.0942V41.1885C30.0303 40.7729 30.3623 40.4355 30.7715 40.4355C31.1806 40.4355 31.5127 40.7729 31.5127 41.1885V48.0942C31.5127 48.5099 31.1806 48.8472 30.7715 48.8472Z" fill="#F73E20"/>
<path d="M34.758 48.8478C34.3489 48.8478 34.0168 48.5105 34.0168 48.0948V39.1221C34.0168 38.7064 34.3489 38.3691 34.758 38.3691C35.1672 38.3691 35.4992 38.7064 35.4992 39.1221V48.0948C35.4992 48.5105 35.1682 48.8478 34.758 48.8478Z" fill="#F73E20"/>
<path d="M38.7458 48.8475C38.3367 48.8475 38.0046 48.5102 38.0046 48.0946V37.7324C38.0046 37.3168 38.3367 36.9795 38.7458 36.9795C39.155 36.9795 39.487 37.3168 39.487 37.7324V48.0946C39.487 48.5102 39.155 48.8475 38.7458 48.8475Z" fill="#F73E20"/>
<path d="M42.7324 48.8472C42.3233 48.8472 41.9912 48.5099 41.9912 48.0943V36.0586C41.9912 35.643 42.3233 35.3057 42.7324 35.3057C43.1415 35.3057 43.4736 35.643 43.4736 36.0586V48.0943C43.4736 48.5099 43.1415 48.8472 42.7324 48.8472Z" fill="#F73E20"/>
<path d="M5.468 48.8474C5.05886 48.8474 4.72681 48.5101 4.72681 48.0945V43.7266C4.72681 43.3109 5.05886 42.9736 5.468 42.9736C5.87714 42.9736 6.2092 43.3109 6.2092 43.7266V48.0945C6.2092 48.5101 5.87714 48.8474 5.468 48.8474Z" fill="#F73E20"/>
<path d="M9.45482 48.8474C9.04568 48.8474 8.71362 48.5101 8.71362 48.0945V43.7266C8.71362 43.3109 9.04568 42.9736 9.45482 42.9736C9.86396 42.9736 10.196 43.3109 10.196 43.7266V48.0945C10.196 48.5101 9.86396 48.8474 9.45482 48.8474Z" fill="#F73E20"/>
<path d="M13.4414 48.8474C13.0323 48.8474 12.7002 48.5101 12.7002 48.0945V43.7266C12.7002 43.3109 13.0323 42.9736 13.4414 42.9736C13.8505 42.9736 14.1826 43.3109 14.1826 43.7266V48.0945C14.1826 48.5101 13.8515 48.8474 13.4414 48.8474Z" fill="#F73E20"/>
<path d="M17.4289 48.8474C17.0198 48.8474 16.6877 48.5101 16.6877 48.0945V43.7266C16.6877 43.3109 17.0198 42.9736 17.4289 42.9736C17.8381 42.9736 18.1701 43.3109 18.1701 43.7266V48.0945C18.1701 48.5101 17.8381 48.8474 17.4289 48.8474Z" fill="#F73E20"/>
<path d="M43.865 16.8841C43.4558 16.8841 43.1238 16.5468 43.1238 16.1312V12.1367C43.1238 11.7211 43.4558 11.3838 43.865 11.3838C44.2741 11.3838 44.6062 11.7211 44.6062 12.1367V16.1312C44.6062 16.5478 44.2751 16.8841 43.865 16.8841Z" fill="#F73E20"/>
<path d="M41.3281 16.8841C40.919 16.8841 40.5869 16.5468 40.5869 16.1312V14.7568C40.5869 14.3412 40.919 14.0039 41.3281 14.0039C41.7373 14.0039 42.0693 14.3412 42.0693 14.7568V16.1312C42.0693 16.5478 41.7373 16.8841 41.3281 16.8841Z" fill="#F73E20"/>
<path d="M45.5372 20.1025H42.0674C41.6582 20.1025 41.3262 19.7652 41.3262 19.3496C41.3262 18.934 41.6582 18.5967 42.0674 18.5967H45.5372C45.9463 18.5967 46.2784 18.934 46.2784 19.3496C46.2784 19.7652 45.9473 20.1025 45.5372 20.1025Z" fill="#F73E20"/>
<path d="M45.5372 23.0898H42.0674C41.6582 23.0898 41.3262 22.7525 41.3262 22.3369C41.3262 21.9213 41.6582 21.584 42.0674 21.584H45.5372C45.9463 21.584 46.2784 21.9213 46.2784 22.3369C46.2784 22.7525 45.9473 23.0898 45.5372 23.0898Z" fill="#F73E20"/>
</g>
<defs>
<clipPath id="clip0_491_2752">
<rect width="49" height="49" fill="white"/>
</clipPath>
</defs>
</svg>
