<svg width="39" height="48" viewBox="0 0 39 48" fill="none" xmlns="http://www.w3.org/2000/svg">
<g clip-path="url(#clip0_491_3042)">
<path d="M27.3973 47.249C27.176 47.249 26.9927 47.0643 26.9927 46.8414V43.3392C26.9927 43.1163 27.176 42.9316 27.3973 42.9316C27.6187 42.9316 27.802 43.1163 27.802 43.3392V46.8414C27.802 47.0643 27.6187 47.249 27.3973 47.249Z" fill="#F73E20"/>
<path d="M29.0602 47.249C28.8389 47.249 28.6555 47.0643 28.6555 46.8414V43.3392C28.6555 43.1163 28.8389 42.9316 29.0602 42.9316C29.2815 42.9316 29.4649 43.1163 29.4649 43.3392V46.8414C29.4649 47.0643 29.2815 47.249 29.0602 47.249Z" fill="#F73E20"/>
<path d="M34.5233 48.0002H34.3589C33.8467 48.0002 33.4105 47.6564 33.2587 47.1915H29.4017C29.2436 47.6755 28.82 48.0002 28.3141 48.0002H28.1498C27.6566 48.0002 27.2329 47.6882 27.0685 47.2488H24.8239C24.1916 47.2488 23.6731 46.7267 23.6731 46.0899C23.6731 45.4531 24.1916 44.931 24.8239 44.931H25.0325C24.2675 43.5619 24.2611 42.4539 24.4129 41.7216C24.6152 40.7665 25.159 40.1488 25.5637 39.9068C25.9557 39.6712 26.4173 39.6649 26.8788 39.8623C26.8472 39.5502 26.7903 39.1172 26.7018 38.5314C26.392 36.5192 26.3034 34.6662 26.3034 33.8893C26.3034 33.6155 26.2339 33.329 26.1011 33.0169C25.4562 31.5269 25.9051 29.8776 26.2276 29.0244C26.3034 28.8142 26.3224 28.5977 26.2782 28.394C25.5257 25.0891 28.8326 22.2109 28.9717 22.0899C29.0666 22.0071 29.1994 21.9753 29.3258 22.0007C29.4523 22.0262 29.5534 22.1154 29.604 22.23C30.0403 23.2234 29.9644 25.4775 29.9012 26.5728C30.5525 26.4518 31.2606 26.4836 31.3618 26.4836C31.4377 26.4773 32.1332 26.4518 32.7845 26.5728C32.7212 25.4839 32.6454 23.2297 33.0817 22.2364C33.1322 22.1217 33.2397 22.0326 33.3599 22.0071C33.4863 21.9816 33.6128 22.0135 33.714 22.0963C33.8531 22.2173 37.16 25.1018 36.4075 28.4003C36.3633 28.6041 36.3759 28.827 36.4581 29.0307C36.7806 29.884 37.2295 31.5333 36.5846 33.0233C36.4518 33.3353 36.3822 33.6219 36.3822 33.8957C36.3822 34.6725 36.2937 36.5256 35.9839 38.5378C35.8954 39.1236 35.8385 39.5502 35.8069 39.8686C36.2684 39.6712 36.73 39.684 37.122 39.9132C37.5267 40.1552 38.0705 40.7728 38.2728 41.728C38.4246 42.4539 38.4246 43.5683 37.6532 44.9373H37.8618C38.4941 44.9373 39.0126 45.4595 39.0126 46.0963C39.0126 46.733 38.4941 47.2552 37.8618 47.2552H35.5982C35.4338 47.6882 35.0165 48.0002 34.5233 48.0002ZM29.0603 46.3765H33.6065C33.8278 46.3765 34.0111 46.5611 34.0111 46.784C34.0111 47.0323 34.1692 47.1852 34.3589 47.1852H34.5233C34.713 47.1852 34.8711 47.0323 34.8711 46.8349C34.8711 46.6121 35.0544 46.4274 35.2757 46.4274H37.8555C38.0452 46.4274 38.2033 46.2746 38.2033 46.0772C38.2033 45.8798 38.0452 45.7269 37.8555 45.7269H36.9134C36.7616 45.7269 36.6225 45.6442 36.553 45.5104C36.4834 45.3767 36.4961 45.2112 36.5846 45.0902C37.5836 43.6702 37.6215 42.5622 37.4761 41.8808C37.318 41.1358 36.9197 40.7219 36.7047 40.5945C36.3443 40.378 35.8954 40.7028 35.7247 40.8493C35.5855 40.9702 35.3832 40.9957 35.2188 40.9193C35.0544 40.8429 34.9533 40.671 34.9533 40.4927C34.9533 40.1997 34.9975 39.6012 35.1872 38.3977C35.4528 36.6848 35.5729 34.8508 35.5729 33.8766C35.5729 33.4881 35.6614 33.0997 35.8385 32.6858C36.3696 31.4632 35.9776 30.0432 35.6994 29.3109C35.5666 28.9543 35.535 28.5723 35.6172 28.2093C36.104 26.0761 34.4917 24.0448 33.657 23.1597C33.461 24.325 33.5622 26.2862 33.6318 27.0758C33.6444 27.2159 33.5812 27.356 33.4674 27.4388C33.3535 27.5216 33.2018 27.5407 33.0753 27.4834C32.6011 27.286 31.678 27.2796 31.3618 27.2923C31.0077 27.2796 30.0909 27.286 29.6167 27.4834C29.4839 27.5407 29.3385 27.5216 29.2247 27.4388C29.1108 27.356 29.0476 27.2159 29.0603 27.0758C29.1298 26.2862 29.2247 24.325 29.035 23.1597C28.2003 24.0448 26.588 26.0825 27.0748 28.2093C27.157 28.5723 27.1318 28.9543 26.9926 29.3109C26.7144 30.0496 26.3224 31.4632 26.8535 32.6858C27.0306 33.0997 27.1191 33.4881 27.1191 33.8766C27.1191 34.8572 27.2456 36.6911 27.5048 38.3977C27.6882 39.6012 27.7324 40.1997 27.7388 40.4927C27.7388 40.6773 27.6376 40.8429 27.4732 40.9193C27.3088 40.9957 27.1128 40.9702 26.9674 40.8493C26.7903 40.6964 26.3477 40.3717 25.981 40.5945C25.7723 40.7219 25.3676 41.1358 25.2096 41.8808C25.0641 42.5622 25.1021 43.6702 26.1011 45.0902C26.1896 45.2112 26.2023 45.3767 26.1327 45.5104C26.0632 45.6442 25.9241 45.7269 25.7723 45.7269H24.8302C24.6405 45.7269 24.4824 45.8798 24.4824 46.0772C24.4824 46.2746 24.6405 46.4274 24.8302 46.4274H27.41C27.6313 46.4274 27.8146 46.6121 27.8146 46.8349C27.8146 47.026 27.9727 47.1852 28.1624 47.1852H28.3268C28.5165 47.1852 28.6746 47.0323 28.6746 46.8349C28.6556 46.6184 28.839 46.3765 29.0603 46.3765Z" fill="#F73E20"/>
<path d="M35.2694 47.249C35.0481 47.249 34.8647 47.0643 34.8647 46.8414V43.3392C34.8647 43.1163 35.0481 42.9316 35.2694 42.9316C35.4907 42.9316 35.6741 43.1163 35.6741 43.3392V46.8414C35.6741 47.0643 35.4907 47.249 35.2694 47.249Z" fill="#F73E20"/>
<path d="M33.6066 47.249C33.3853 47.249 33.2019 47.0643 33.2019 46.8414V43.3392C33.2019 43.1163 33.3853 42.9316 33.6066 42.9316C33.8279 42.9316 34.0112 43.1163 34.0112 43.3392V46.8414C34.0112 47.0643 33.8279 47.249 33.6066 47.249Z" fill="#F73E20"/>
<path d="M31.3366 37.4549C31.0142 37.4549 30.717 37.4039 30.4641 37.2957C29.7938 37.0219 29.2501 36.5124 28.9339 35.8566C28.8644 35.7165 28.7442 35.5254 28.5292 35.4299C26.6766 34.5894 26.1834 33.2394 26.1645 33.1821C26.0886 32.972 26.2024 32.7364 26.411 32.6663C26.6197 32.5899 26.8473 32.7045 26.9232 32.9147C26.9422 32.9656 27.3468 34.0099 28.8644 34.6976C29.2058 34.8505 29.484 35.137 29.661 35.5127C29.8887 35.9839 30.2807 36.3533 30.7612 36.5507C31.0837 36.678 31.5896 36.678 31.912 36.5507C32.3989 36.3533 32.7846 35.9839 33.0122 35.5127C33.1956 35.137 33.4675 34.8505 33.8089 34.6976C35.3327 34.0099 35.7311 32.9592 35.7501 32.9147C35.8259 32.7045 36.0536 32.5963 36.2685 32.6727C36.4772 32.7491 36.5847 32.9783 36.5151 33.1885C36.4962 33.2458 36.003 34.5958 34.144 35.4363C33.9354 35.5318 33.8089 35.7228 33.7394 35.8629C33.4295 36.5188 32.8858 37.0346 32.2155 37.302C31.9563 37.3976 31.6591 37.4549 31.3366 37.4549Z" fill="#F73E20"/>
<mask id="path-7-inside-1_491_3042" fill="white">
<path d="M13.0948 8.90846C10.6541 8.90846 8.6687 6.90899 8.6687 4.45742C8.6687 1.99947 10.6541 0 13.0948 0C15.5354 0 17.5145 1.99947 17.5145 4.45742C17.5145 6.90899 15.5291 8.90846 13.0948 8.90846ZM13.0948 0.81507C11.103 0.81507 9.47804 2.45158 9.47804 4.45742C9.47804 6.46325 11.103 8.09976 13.0948 8.09976C15.0865 8.09976 16.7115 6.46325 16.7115 4.45742C16.7115 2.44521 15.0865 0.81507 13.0948 0.81507Z"/>
</mask>
<path d="M13.0948 8.90846C10.6541 8.90846 8.6687 6.90899 8.6687 4.45742C8.6687 1.99947 10.6541 0 13.0948 0C15.5354 0 17.5145 1.99947 17.5145 4.45742C17.5145 6.90899 15.5291 8.90846 13.0948 8.90846ZM13.0948 0.81507C11.103 0.81507 9.47804 2.45158 9.47804 4.45742C9.47804 6.46325 11.103 8.09976 13.0948 8.09976C15.0865 8.09976 16.7115 6.46325 16.7115 4.45742C16.7115 2.44521 15.0865 0.81507 13.0948 0.81507Z" fill="#F73E20"/>
<path d="M17.5145 4.45742H19.5145H17.5145ZM13.0948 6.90846C11.7701 6.90846 10.6687 5.81589 10.6687 4.45742H6.6687C6.6687 8.0021 9.53811 10.9085 13.0948 10.9085V6.90846ZM10.6687 4.45742C10.6687 3.09071 11.772 2 13.0948 2V-2C9.53626 -2 6.6687 0.90823 6.6687 4.45742H10.6687ZM13.0948 2C14.4139 2 15.5145 3.08697 15.5145 4.45742H19.5145C19.5145 0.911967 16.657 -2 13.0948 -2V2ZM15.5145 4.45742C15.5145 5.81775 14.4113 6.90846 13.0948 6.90846V10.9085C16.647 10.9085 19.5145 8.00023 19.5145 4.45742H15.5145ZM13.0948 -1.18493C9.98519 -1.18493 7.47804 1.36034 7.47804 4.45742H11.478C11.478 3.54282 12.2209 2.81507 13.0948 2.81507V-1.18493ZM7.47804 4.45742C7.47804 7.55449 9.98519 10.0998 13.0948 10.0998V6.09976C12.2209 6.09976 11.478 5.37201 11.478 4.45742H7.47804ZM13.0948 10.0998C16.2044 10.0998 18.7115 7.55449 18.7115 4.45742H14.7115C14.7115 5.37201 13.9686 6.09976 13.0948 6.09976V10.0998ZM18.7115 4.45742C18.7115 1.35169 16.2021 -1.18493 13.0948 -1.18493V2.81507C13.9709 2.81507 14.7115 3.53873 14.7115 4.45742H18.7115Z" fill="#F73E20" mask="url(#path-7-inside-1_491_3042)"/>
<path d="M18.5326 28.2282H7.65076C7.42946 28.2282 7.24609 28.0435 7.24609 27.8206C7.24609 27.5977 7.42946 27.4131 7.65076 27.4131H18.5326C18.7539 27.4131 18.9372 27.5977 18.9372 27.8206C18.9372 28.0435 18.7539 28.2282 18.5326 28.2282Z" fill="#F73E20"/>
<path d="M7.65076 17.3008C7.42946 17.3008 7.24609 17.1162 7.24609 16.8933V11.347C7.24609 11.1241 7.42946 10.9395 7.65076 10.9395C7.87207 10.9395 8.05543 11.1241 8.05543 11.347V16.8933C8.05543 17.1162 7.87839 17.3008 7.65076 17.3008Z" fill="#F73E20"/>
<path d="M18.5769 17.3009C18.3556 17.3009 18.1785 17.1226 18.1722 16.8997L18.1279 11.3534C18.1279 11.1306 18.305 10.9459 18.5263 10.9459C18.7539 10.9332 18.9309 11.1242 18.9309 11.3471L18.9752 16.8934C18.9815 17.1163 18.8045 17.3009 18.5769 17.3009C18.5832 17.3009 18.5832 17.3009 18.5769 17.3009Z" fill="#F73E20"/>
<path d="M18.5326 27.0182H7.65076C7.42946 27.0182 7.24609 26.8335 7.24609 26.6107C7.24609 26.3878 7.42946 26.2031 7.65076 26.2031H18.5326C18.7539 26.2031 18.9372 26.3878 18.9372 26.6107C18.9372 26.8399 18.7539 27.0182 18.5326 27.0182Z" fill="#F73E20"/>
<path d="M13.0949 14.9263C12.8736 14.9263 12.6902 14.7416 12.6902 14.5187V11.9271C12.6902 11.7042 12.8736 11.5195 13.0949 11.5195C13.3162 11.5195 13.4995 11.7042 13.4995 11.9271V14.5187C13.4995 14.7416 13.3225 14.9263 13.0949 14.9263Z" fill="#F73E20"/>
<mask id="path-14-inside-2_491_3042" fill="white">
<path d="M16.5977 48.0004C16.5661 48.0004 16.5345 48.0004 16.4966 47.994C16.408 48.0004 16.3638 48.0004 16.3195 48.0004C16.2753 48.0004 16.231 47.9877 16.1867 47.9813L16.0603 47.9622C15.5987 47.8858 15.1624 47.6693 14.802 47.3318C14.6629 47.1981 14.5744 47.0898 14.4859 46.9752C14.1318 46.4658 13.9611 45.9373 13.9611 45.3896V32.1447C13.9611 31.6608 13.5817 31.2724 13.0948 31.266C12.6269 31.2787 12.2475 31.6608 12.2475 32.1447V45.3833C12.2475 45.9245 12.0768 46.453 11.7607 46.9179C11.7607 46.9243 11.7227 46.9688 11.7227 46.9752C11.6405 47.0835 11.552 47.1917 11.4508 47.2936C11.0588 47.6629 10.6225 47.8858 10.1546 47.9622L10.0661 47.9749C9.99024 47.9877 9.94598 47.994 9.90172 48.0004C9.85746 48.0004 9.8132 48.0004 9.76894 47.994C9.68042 48.0004 9.63616 48.0004 9.5919 48.0004C9.54763 48.0004 9.50337 47.9877 9.45911 47.9813L9.33265 47.9622C8.86475 47.8858 8.42847 47.6693 8.07439 47.3318C7.93528 47.1981 7.84676 47.0898 7.75824 46.9752C7.40415 46.4658 7.23975 45.9373 7.23975 45.3896V18.3268L4.249 23.2235C4.21738 23.2745 4.17312 23.3191 4.12254 23.3509L3.96446 23.612C3.54083 24.3061 2.80736 24.6881 1.99802 24.6372C1.19501 24.5862 0.512129 24.115 0.170689 23.37C-0.132813 22.7078 -0.0569374 21.8863 0.360378 21.2304L6.05104 12.3793C6.91096 11.0421 8.36524 10.2461 9.94598 10.2461H10.5403C10.7174 10.2461 10.9007 10.2907 11.0525 10.3798L13.0442 11.4878C13.0695 11.5005 13.1011 11.5069 13.1391 11.5133C13.1201 11.5133 13.1517 11.5005 13.1707 11.4878L15.1561 10.3798C15.3142 10.2907 15.4912 10.2461 15.6746 10.2461H16.2184C17.8434 10.2461 19.2976 11.0421 20.1576 12.3793L25.8482 21.2304C26.2719 21.8863 26.3414 22.7014 26.0379 23.37C25.7028 24.1087 25.0199 24.5862 24.2106 24.6372C23.4012 24.6881 22.6678 24.3061 22.2441 23.612L22.0861 23.3573C22.0355 23.3254 21.9912 23.2809 21.9596 23.2235L18.9688 18.3268V45.3833C18.9688 45.9245 18.7981 46.453 18.482 46.9179C18.3618 47.0835 18.267 47.1917 18.1658 47.2936C17.7738 47.6629 17.3375 47.8858 16.8696 47.9622L16.7811 47.9749C16.7115 47.9877 16.6673 47.994 16.6167 48.0004C16.623 48.0004 16.6104 48.0004 16.5977 48.0004ZM16.4776 47.179C16.5155 47.179 16.5471 47.179 16.5724 47.1853C16.5851 47.1853 16.6863 47.1726 16.6926 47.1662C17.0656 47.1026 17.3565 46.9561 17.5904 46.7332C17.6853 46.6377 17.7485 46.5677 17.8054 46.4849C18.052 46.1283 18.1721 45.759 18.1721 45.3833V16.894C18.1721 16.7093 18.2923 16.5502 18.463 16.5056C18.6337 16.4546 18.8234 16.5311 18.9183 16.6839L22.535 22.5995C22.5856 22.6313 22.6235 22.6695 22.6551 22.7205L22.9397 23.1853C23.2052 23.6183 23.6605 23.8539 24.1663 23.8285C24.6721 23.7966 25.0958 23.5037 25.3044 23.0389C25.4941 22.625 25.4435 22.1028 25.1717 21.6825L19.481 12.8314C18.7728 11.7298 17.5715 11.0675 16.2689 11.0675H15.6746C15.6303 11.0675 15.5861 11.0803 15.5481 11.0994L13.5627 12.2074C13.4363 12.2774 13.2908 12.322 13.1391 12.3283C12.9241 12.3156 12.7787 12.2774 12.6522 12.2074L10.6605 11.093C10.6225 11.0739 10.5783 11.0612 10.534 11.0612H9.99024C8.63713 11.0612 7.43577 11.717 6.7276 12.825L1.03693 21.6762C0.765047 22.0965 0.714463 22.6186 0.904152 23.0325C1.11281 23.4974 1.54277 23.7903 2.04228 23.8221C2.5418 23.8476 3.00337 23.612 3.26894 23.179L3.55347 22.7141C3.58509 22.6632 3.62935 22.6186 3.67993 22.5868L7.29034 16.6775C7.38518 16.5247 7.56855 16.4483 7.74559 16.4992C7.91631 16.5502 8.03645 16.7093 8.03645 16.8876V45.3769C8.03645 45.7526 8.15658 46.1219 8.37789 46.4467C8.46009 46.5613 8.52332 46.6377 8.59287 46.7078C8.85211 46.9561 9.14296 47.1026 9.45279 47.1535C9.46544 47.1535 9.5919 47.179 9.59822 47.179C9.61086 47.179 9.71203 47.1726 9.72468 47.1726C9.76261 47.1726 9.78791 47.1726 9.81952 47.179C9.83217 47.179 9.93333 47.1662 9.93966 47.1662L9.99656 47.1535C10.3127 47.1026 10.6036 46.9561 10.8375 46.7332C10.9324 46.6441 10.9956 46.5677 11.0525 46.4849C11.2991 46.1283 11.4192 45.7526 11.4192 45.3769V32.1447C11.4192 31.2151 12.1464 30.47 13.0758 30.4573C14.018 30.4764 14.7451 31.2151 14.7451 32.1447V45.3833C14.7451 45.759 14.8652 46.1283 15.0865 46.453C15.1687 46.5677 15.232 46.6441 15.3015 46.7141C15.5608 46.9625 15.8516 47.1089 16.1614 47.1599L16.231 47.1726C16.2373 47.1726 16.3006 47.1853 16.3069 47.1853C16.3575 47.179 16.4649 47.179 16.4776 47.179Z"/>
</mask>
<path d="M16.5977 48.0004C16.5661 48.0004 16.5345 48.0004 16.4966 47.994C16.408 48.0004 16.3638 48.0004 16.3195 48.0004C16.2753 48.0004 16.231 47.9877 16.1867 47.9813L16.0603 47.9622C15.5987 47.8858 15.1624 47.6693 14.802 47.3318C14.6629 47.1981 14.5744 47.0898 14.4859 46.9752C14.1318 46.4658 13.9611 45.9373 13.9611 45.3896V32.1447C13.9611 31.6608 13.5817 31.2724 13.0948 31.266C12.6269 31.2787 12.2475 31.6608 12.2475 32.1447V45.3833C12.2475 45.9245 12.0768 46.453 11.7607 46.9179C11.7607 46.9243 11.7227 46.9688 11.7227 46.9752C11.6405 47.0835 11.552 47.1917 11.4508 47.2936C11.0588 47.6629 10.6225 47.8858 10.1546 47.9622L10.0661 47.9749C9.99024 47.9877 9.94598 47.994 9.90172 48.0004C9.85746 48.0004 9.8132 48.0004 9.76894 47.994C9.68042 48.0004 9.63616 48.0004 9.5919 48.0004C9.54763 48.0004 9.50337 47.9877 9.45911 47.9813L9.33265 47.9622C8.86475 47.8858 8.42847 47.6693 8.07439 47.3318C7.93528 47.1981 7.84676 47.0898 7.75824 46.9752C7.40415 46.4658 7.23975 45.9373 7.23975 45.3896V18.3268L4.249 23.2235C4.21738 23.2745 4.17312 23.3191 4.12254 23.3509L3.96446 23.612C3.54083 24.3061 2.80736 24.6881 1.99802 24.6372C1.19501 24.5862 0.512129 24.115 0.170689 23.37C-0.132813 22.7078 -0.0569374 21.8863 0.360378 21.2304L6.05104 12.3793C6.91096 11.0421 8.36524 10.2461 9.94598 10.2461H10.5403C10.7174 10.2461 10.9007 10.2907 11.0525 10.3798L13.0442 11.4878C13.0695 11.5005 13.1011 11.5069 13.1391 11.5133C13.1201 11.5133 13.1517 11.5005 13.1707 11.4878L15.1561 10.3798C15.3142 10.2907 15.4912 10.2461 15.6746 10.2461H16.2184C17.8434 10.2461 19.2976 11.0421 20.1576 12.3793L25.8482 21.2304C26.2719 21.8863 26.3414 22.7014 26.0379 23.37C25.7028 24.1087 25.0199 24.5862 24.2106 24.6372C23.4012 24.6881 22.6678 24.3061 22.2441 23.612L22.0861 23.3573C22.0355 23.3254 21.9912 23.2809 21.9596 23.2235L18.9688 18.3268V45.3833C18.9688 45.9245 18.7981 46.453 18.482 46.9179C18.3618 47.0835 18.267 47.1917 18.1658 47.2936C17.7738 47.6629 17.3375 47.8858 16.8696 47.9622L16.7811 47.9749C16.7115 47.9877 16.6673 47.994 16.6167 48.0004C16.623 48.0004 16.6104 48.0004 16.5977 48.0004ZM16.4776 47.179C16.5155 47.179 16.5471 47.179 16.5724 47.1853C16.5851 47.1853 16.6863 47.1726 16.6926 47.1662C17.0656 47.1026 17.3565 46.9561 17.5904 46.7332C17.6853 46.6377 17.7485 46.5677 17.8054 46.4849C18.052 46.1283 18.1721 45.759 18.1721 45.3833V16.894C18.1721 16.7093 18.2923 16.5502 18.463 16.5056C18.6337 16.4546 18.8234 16.5311 18.9183 16.6839L22.535 22.5995C22.5856 22.6313 22.6235 22.6695 22.6551 22.7205L22.9397 23.1853C23.2052 23.6183 23.6605 23.8539 24.1663 23.8285C24.6721 23.7966 25.0958 23.5037 25.3044 23.0389C25.4941 22.625 25.4435 22.1028 25.1717 21.6825L19.481 12.8314C18.7728 11.7298 17.5715 11.0675 16.2689 11.0675H15.6746C15.6303 11.0675 15.5861 11.0803 15.5481 11.0994L13.5627 12.2074C13.4363 12.2774 13.2908 12.322 13.1391 12.3283C12.9241 12.3156 12.7787 12.2774 12.6522 12.2074L10.6605 11.093C10.6225 11.0739 10.5783 11.0612 10.534 11.0612H9.99024C8.63713 11.0612 7.43577 11.717 6.7276 12.825L1.03693 21.6762C0.765047 22.0965 0.714463 22.6186 0.904152 23.0325C1.11281 23.4974 1.54277 23.7903 2.04228 23.8221C2.5418 23.8476 3.00337 23.612 3.26894 23.179L3.55347 22.7141C3.58509 22.6632 3.62935 22.6186 3.67993 22.5868L7.29034 16.6775C7.38518 16.5247 7.56855 16.4483 7.74559 16.4992C7.91631 16.5502 8.03645 16.7093 8.03645 16.8876V45.3769C8.03645 45.7526 8.15658 46.1219 8.37789 46.4467C8.46009 46.5613 8.52332 46.6377 8.59287 46.7078C8.85211 46.9561 9.14296 47.1026 9.45279 47.1535C9.46544 47.1535 9.5919 47.179 9.59822 47.179C9.61086 47.179 9.71203 47.1726 9.72468 47.1726C9.76261 47.1726 9.78791 47.1726 9.81952 47.179C9.83217 47.179 9.93333 47.1662 9.93966 47.1662L9.99656 47.1535C10.3127 47.1026 10.6036 46.9561 10.8375 46.7332C10.9324 46.6441 10.9956 46.5677 11.0525 46.4849C11.2991 46.1283 11.4192 45.7526 11.4192 45.3769V32.1447C11.4192 31.2151 12.1464 30.47 13.0758 30.4573C14.018 30.4764 14.7451 31.2151 14.7451 32.1447V45.3833C14.7451 45.759 14.8652 46.1283 15.0865 46.453C15.1687 46.5677 15.232 46.6441 15.3015 46.7141C15.5608 46.9625 15.8516 47.1089 16.1614 47.1599L16.231 47.1726C16.2373 47.1726 16.3006 47.1853 16.3069 47.1853C16.3575 47.179 16.4649 47.179 16.4776 47.179Z" fill="#F73E20" stroke="#F73E20" stroke-width="4" mask="url(#path-14-inside-2_491_3042)"/>
<path d="M26.5436 34.7674C26.4362 34.7674 26.3223 34.7228 26.2465 34.6337C22.655 30.5965 24.7985 23.9295 24.887 23.6493C24.9566 23.4392 25.1842 23.3246 25.3929 23.3946C25.6015 23.4646 25.7217 23.6939 25.6521 23.9104C25.6331 23.9741 23.5655 30.4118 26.8408 34.0988C26.9926 34.2643 26.9736 34.5254 26.8092 34.6719C26.7333 34.7355 26.6385 34.7674 26.5436 34.7674Z" fill="#F73E20"/>
</g>
<defs>
<clipPath id="clip0_491_3042">
<rect width="39" height="48" fill="white"/>
</clipPath>
</defs>
</svg>
