<svg width="28" height="28" viewBox="0 0 28 28" fill="none" xmlns="http://www.w3.org/2000/svg">
<path d="M22.75 4.47363H5.25C4.61271 4.47651 4.00234 4.73095 3.5517 5.18159C3.10107 5.63222 2.84663 6.24259 2.84375 6.87988V19.1299C2.84375 19.4459 2.90599 19.7588 3.02691 20.0507C3.14784 20.3427 3.32508 20.6079 3.54852 20.8314C3.77197 21.0548 4.03723 21.232 4.32917 21.353C4.62111 21.4739 4.93401 21.5361 5.25 21.5361H22.75C23.066 21.5361 23.3789 21.4739 23.6708 21.353C23.9628 21.232 24.228 21.0548 24.4515 20.8314C24.6749 20.6079 24.8522 20.3427 24.9731 20.0507C25.094 19.7588 25.1562 19.4459 25.1562 19.1299V6.87988C25.1534 6.24259 24.8989 5.63222 24.4483 5.18159C23.9977 4.73095 23.3873 4.47651 22.75 4.47363ZM23.8438 19.1299C23.8438 19.42 23.7285 19.6982 23.5234 19.9033C23.3183 20.1084 23.0401 20.2236 22.75 20.2236H5.25C4.95992 20.2236 4.68172 20.1084 4.4766 19.9033C4.27148 19.6982 4.15625 19.42 4.15625 19.1299V6.87988C4.15625 6.5898 4.27148 6.3116 4.4766 6.10648C4.68172 5.90137 4.95992 5.78613 5.25 5.78613H22.75C23.0401 5.78613 23.3183 5.90137 23.5234 6.10648C23.7285 6.3116 23.8438 6.5898 23.8438 6.87988V19.1299ZM18.1562 24.3799C18.1562 24.5539 18.0871 24.7209 17.964 24.8439C17.841 24.967 17.674 25.0361 17.5 25.0361H10.5C10.326 25.0361 10.159 24.967 10.036 24.8439C9.91289 24.7209 9.84375 24.5539 9.84375 24.3799C9.84375 24.2058 9.91289 24.0389 10.036 23.9158C10.159 23.7928 10.326 23.7236 10.5 23.7236H17.5C17.674 23.7236 17.841 23.7928 17.964 23.9158C18.0871 24.0389 18.1562 24.2058 18.1562 24.3799Z" fill="black"/>
</svg>
