<svg width="44" height="45" viewBox="0 0 44 45" fill="none" xmlns="http://www.w3.org/2000/svg">
<path d="M35.75 7.75842H8.25C7.24854 7.76294 6.28939 8.16278 5.58125 8.87092C4.8731 9.57906 4.47327 10.5382 4.46875 11.5397V30.7897C4.46875 31.2862 4.56655 31.7779 4.75658 32.2367C4.94661 32.6955 5.22513 33.1123 5.57625 33.4634C5.92737 33.8145 6.34422 34.0931 6.80298 34.2831C7.26174 34.4731 7.75344 34.5709 8.25 34.5709H35.75C36.2466 34.5709 36.7383 34.4731 37.197 34.2831C37.6558 34.0931 38.0726 33.8145 38.4237 33.4634C38.7749 33.1123 39.0534 32.6955 39.2434 32.2367C39.4334 31.7779 39.5312 31.2862 39.5312 30.7897V11.5397C39.5267 10.5382 39.1269 9.57906 38.4187 8.87092C37.7106 8.16278 36.7515 7.76294 35.75 7.75842ZM37.4687 30.7897C37.4687 31.2455 37.2877 31.6827 36.9653 32.005C36.643 32.3273 36.2058 32.5084 35.75 32.5084H8.25C7.79416 32.5084 7.35699 32.3273 7.03466 32.005C6.71233 31.6827 6.53125 31.2455 6.53125 30.7897V11.5397C6.53125 11.0838 6.71233 10.6467 7.03466 10.3243C7.35699 10.002 7.79416 9.82092 8.25 9.82092H35.75C36.2058 9.82092 36.643 10.002 36.9653 10.3243C37.2877 10.6467 37.4687 11.0838 37.4687 11.5397V30.7897ZM28.5312 39.0397C28.5312 39.3132 28.4226 39.5755 28.2292 39.7689C28.0358 39.9623 27.7735 40.0709 27.5 40.0709H16.5C16.2265 40.0709 15.9642 39.9623 15.7708 39.7689C15.5774 39.5755 15.4687 39.3132 15.4687 39.0397C15.4687 38.7662 15.5774 38.5039 15.7708 38.3105C15.9642 38.1171 16.2265 38.0084 16.5 38.0084H27.5C27.7735 38.0084 28.0358 38.1171 28.2292 38.3105C28.4226 38.5039 28.5312 38.7662 28.5312 39.0397Z" fill="black"/>
</svg>
