<svg width="11" height="13" viewBox="0 0 11 13" fill="none" xmlns="http://www.w3.org/2000/svg">
<path d="M1.85686 0.28523L2.70231 0.0616271C3.49511 -0.147675 4.34212 0.190979 4.68156 0.852686L5.35729 2.1709C5.65115 2.74486 5.48772 3.42022 4.95342 3.84012L3.46446 5.00884C3.55639 5.70824 3.84083 6.3966 4.31698 7.07391C4.76914 7.7292 5.37565 8.30278 6.10058 8.76068L7.8889 8.26667C8.5662 8.08012 9.30479 8.29527 9.71965 8.80033L10.6885 9.97684C11.1717 10.5645 11.0845 11.3744 10.485 11.8723L9.84301 12.4059C9.20343 12.937 8.28963 13.13 7.44497 12.9116C5.44921 12.3968 3.61611 10.8687 1.94251 8.32712C0.266546 5.78169 -0.325108 3.62107 0.16833 1.84785C0.375763 1.10164 1.0177 0.506882 1.85686 0.28523Z" fill="#232F47"/>
</svg>
