<svg width="48" height="48" viewBox="0 0 48 48" fill="none" xmlns="http://www.w3.org/2000/svg">
<path d="M39.2 10.2772C38.996 10.1866 38.8362 10.0188 38.7555 9.81069C37.5365 6.90396 35.4856 4.42206 32.8604 2.67662C30.2352 0.931179 27.1528 0 24 0C20.8472 0 17.7648 0.931179 15.1396 2.67662C12.5144 4.42206 10.4635 6.90396 9.24448 9.81069C9.16385 10.0188 9.00405 10.1866 8.80004 10.2772C6.18499 11.4878 3.96873 13.4176 2.41038 15.841C0.852025 18.2645 0.0160007 21.0813 5.59523e-05 23.9623C-0.0221662 32.1156 6.57782 38.9137 14.7111 39.1136C17.6755 39.1952 20.5979 38.3991 23.1111 36.8253V47.1114C23.1111 47.347 23.2048 47.5731 23.3715 47.7397C23.5382 47.9064 23.7643 48 24 48C24.2357 48 24.4618 47.9064 24.6285 47.7397C24.7952 47.5731 24.8889 47.347 24.8889 47.1114V36.8253C27.2898 38.3193 30.0609 39.112 32.8889 39.1136H33.2889C41.4222 38.9137 48.0222 32.1156 47.9999 23.9623C47.984 21.0813 47.148 18.2645 45.5896 15.841C44.0313 13.4176 41.815 11.4878 39.2 10.2772ZM33.2444 37.3363C30.4892 37.4091 27.7794 36.6251 25.4889 35.0925C25.3029 34.9696 25.101 34.8724 24.8889 34.8037V24.5621L35.0666 19.4747C35.2788 19.3686 35.4402 19.1826 35.5152 18.9576C35.5902 18.7327 35.5727 18.4871 35.4666 18.275C35.3606 18.0629 35.1745 17.9016 34.9495 17.8266C34.7244 17.7516 34.4788 17.769 34.2666 17.8751L24.8889 22.5627V15.1203C24.8889 14.8846 24.7952 14.6586 24.6285 14.4919C24.4618 14.3253 24.2357 14.2317 24 14.2317C23.7643 14.2317 23.5382 14.3253 23.3715 14.4919C23.2048 14.6586 23.1111 14.8846 23.1111 15.1203V27.8945L13.7334 23.2069C13.6283 23.1544 13.5139 23.1231 13.3968 23.1148C13.2796 23.1065 13.1619 23.1213 13.0505 23.1584C12.9391 23.1956 12.8361 23.2543 12.7473 23.3312C12.6586 23.4081 12.5859 23.5018 12.5334 23.6068C12.4808 23.7119 12.4495 23.8262 12.4412 23.9433C12.4329 24.0605 12.4477 24.1781 12.4848 24.2895C12.522 24.4009 12.5807 24.5039 12.6577 24.5926C12.7346 24.6813 12.8283 24.754 12.9334 24.8065L23.1111 29.894V34.8037C22.899 34.8724 22.6971 34.9696 22.5111 35.0925C20.2206 36.6251 17.5108 37.4091 14.7556 37.3363C7.57782 37.1586 1.75561 31.1603 1.77783 23.9623C1.79425 21.4235 2.53199 18.9416 3.90508 16.8058C5.27817 14.6701 7.23007 12.9684 9.53337 11.899C10.1444 11.6183 10.628 11.119 10.8889 10.4994C11.974 7.9186 13.797 5.71547 16.1294 4.16622C18.4618 2.61697 21.1997 1.79053 24 1.79053C26.8003 1.79053 29.5382 2.61697 31.8706 4.16622C34.203 5.71547 36.026 7.9186 37.1111 10.4994C37.372 11.119 37.8556 11.6183 38.4666 11.899C40.7699 12.9684 42.7218 14.6701 44.0949 16.8058C45.468 18.9416 46.2057 21.4235 46.2222 23.9623C46.2444 31.1603 40.4222 37.1586 33.2444 37.3363Z" fill="#F73E20"/>
</svg>
