<svg width="37" height="48" viewBox="0 0 37 48" fill="none" xmlns="http://www.w3.org/2000/svg">
<path d="M33.0998 48H3.95589C1.95849 48 0.415039 46.4575 0.415039 44.4612V3.53875C0.415039 1.54253 1.95849 0 3.95589 0H33.0998C35.0064 0 36.6407 1.54253 36.6407 3.53875V44.4612C36.5499 46.4575 35.0064 48 33.0998 48ZM3.95589 1.72401C2.95719 1.72401 2.14007 2.54064 2.14007 3.53875V44.4612C2.14007 45.4594 2.95719 46.276 3.95589 46.276H33.0998C34.0985 46.276 34.9156 45.4594 34.9156 44.4612V3.53875C34.9156 2.54064 34.0985 1.72401 33.0998 1.72401H3.95589Z" fill="#F73E20"/>
<path d="M35.7328 9.07414H14.0337C13.6705 9.07414 13.3074 8.89266 13.2166 8.52971C12.6718 7.25939 11.4008 6.44276 10.0389 6.44276C8.67702 6.44276 7.40595 7.25939 6.8612 8.52971C6.77041 8.89266 6.40725 9.07414 6.04408 9.07414H1.23216C0.778203 9.07414 0.415039 8.71119 0.415039 8.16676C0.415039 7.71308 0.778203 7.35013 1.23216 7.35013H5.49934C6.40725 5.71686 8.13228 4.71875 9.9481 4.71875C11.8547 4.71875 13.5797 5.71686 14.3969 7.35013H35.642C36.0959 7.35013 36.4591 7.71308 36.4591 8.16676C36.5499 8.71119 36.1867 9.07414 35.7328 9.07414Z" fill="#F73E20"/>
<path d="M18.4825 38.7448C11.0376 38.7448 4.95459 32.6654 4.95459 25.2249C4.95459 17.7845 11.0376 11.7051 18.4825 11.7051C25.9273 11.7051 32.0103 17.7845 32.0103 25.2249C32.0103 32.6654 25.9273 38.7448 18.4825 38.7448ZM18.4825 13.4291C11.9455 13.4291 6.67962 18.6918 6.67962 25.2249C6.67962 31.758 11.9455 37.0208 18.4825 37.0208C25.0194 37.0208 30.2853 31.758 30.2853 25.2249C30.2853 18.6918 25.0194 13.4291 18.4825 13.4291Z" fill="#F73E20"/>
<path d="M18.4825 34.8427C13.2166 34.8427 8.85864 30.4874 8.85864 25.2246C8.85864 19.9618 13.2166 15.6064 18.4825 15.6064C22.1141 15.6064 25.3826 17.6027 27.0168 20.8692C27.2892 21.2322 27.1076 21.7766 26.7445 21.9581C26.2905 22.1395 25.8366 22.0488 25.5642 21.5951C24.2023 18.9637 21.4786 17.3305 18.4825 17.3305C14.1245 17.3305 10.5837 20.8692 10.5837 25.2246C10.5837 29.58 14.1245 33.1187 18.4825 33.1187C22.8405 33.1187 26.3813 29.58 26.3813 25.2246C26.3813 24.8616 26.3813 24.4987 26.2905 24.045C26.2905 23.5913 26.5629 23.2284 27.0168 23.1376C27.4708 23.0469 27.9248 23.4098 28.0156 23.8635C28.1063 24.3172 28.1063 24.7709 28.1063 25.2246C28.1063 30.4874 23.8392 34.8427 18.4825 34.8427Z" fill="#F73E20"/>
<path d="M26.2903 30.0342H24.2929C23.0219 30.0342 21.9324 28.9453 21.9324 27.675V22.7752C21.9324 21.5049 23.0219 20.416 24.2929 20.416H26.2903C26.7443 20.416 27.1075 20.779 27.1075 21.2326C27.1075 21.6863 26.7443 22.0493 26.2903 22.0493H24.2929C23.9298 22.0493 23.6574 22.3215 23.6574 22.6844V27.5843C23.6574 27.9472 23.9298 28.2194 24.2929 28.2194H26.2903C26.7443 28.2194 27.1075 28.5824 27.1075 29.0361C27.1983 29.6712 26.7443 30.0342 26.2903 30.0342Z" fill="#F73E20"/>
<path d="M35.7328 42.4652H1.23216C0.778203 42.4652 0.415039 42.0115 0.415039 41.5578C0.415039 41.1042 0.778203 40.7412 1.23216 40.7412H35.7328C36.1867 40.7412 36.5499 41.1042 36.5499 41.5578C36.5499 42.0115 36.1867 42.4652 35.7328 42.4652Z" fill="#F73E20"/>
<path d="M32.1011 5.8979C31.6471 5.8979 31.2839 5.44421 31.2839 4.99053V3.99242C31.2839 3.53873 31.6471 3.17578 32.1011 3.17578C32.555 3.17578 32.9182 3.53873 32.9182 3.99242V4.99053C32.9182 5.44421 32.555 5.8979 32.1011 5.8979Z" fill="#F73E20"/>
<path d="M28.8325 5.8979C28.3785 5.8979 28.0154 5.53495 28.0154 5.08126V3.99242C28.0154 3.53873 28.3785 3.17578 28.8325 3.17578C29.2865 3.17578 29.6496 3.53873 29.6496 3.99242V4.99053C29.6496 5.44421 29.2865 5.8979 28.8325 5.8979Z" fill="#F73E20"/>
<path d="M25.4734 5.8979C25.0194 5.8979 24.6562 5.53495 24.6562 5.08126V3.99242C24.6562 3.53873 25.0194 3.17578 25.4734 3.17578C25.9273 3.17578 26.2905 3.53873 26.2905 3.99242V4.99053C26.3813 5.44421 25.9273 5.8979 25.4734 5.8979Z" fill="#F73E20"/>
<path d="M22.2048 5.8979C21.7509 5.8979 21.3877 5.53495 21.3877 5.08126V3.99242C21.3877 3.53873 21.7509 3.17578 22.2048 3.17578C22.6588 3.17578 23.0219 3.53873 23.0219 3.99242V4.99053C23.0219 5.44421 22.6588 5.8979 22.2048 5.8979Z" fill="#F73E20"/>
</svg>
